<svg width="200" height="51" viewBox="0 0 200 51" fill="none" xmlns="http://www.w3.org/2000/svg">
<path fill-rule="evenodd" clip-rule="evenodd" d="M26.2392 18.3144C24.7982 20.2335 17 33.4283 17 33.9484C17 34.2226 17.9888 34.3908 19.5968 34.3908H22.1936L26.2486 27.64C28.4787 23.9268 30.4799 20.8304 30.6954 20.7593C30.9109 20.6877 31.6993 21.8148 32.4481 23.2635C33.1965 24.7122 33.9429 25.8976 34.107 25.8976C34.6346 25.8976 36.8697 21.2676 36.6448 20.6399C36.5254 20.3063 35.9958 19.351 35.4678 18.5166L34.5083 17H30.8673C27.2341 17 27.2247 17.0028 26.2392 18.3144ZM44.7827 17.4032L42.2132 17.6067L38.6036 23.6732C33.4523 32.3306 34.1404 31.8255 32.2085 28.3679L30.5724 25.439L29.1065 27.8814L27.6407 30.3242L28.7887 32.4584L29.9364 34.593L33.784 34.7079L37.6311 34.8228L42.7962 26.2341C45.6371 21.5107 47.8244 17.5452 47.6566 17.4226C47.4891 17.3001 46.1956 17.2912 44.7827 17.4032ZM53.87 18.1826C50.0966 19.8513 47.7625 24.2532 48.7301 27.8757C50.7256 35.3481 59.5236 37.4953 64.1884 31.6487C66.5542 28.6834 66.7644 24.7757 64.7363 21.465C62.5966 17.9727 57.6935 16.4916 53.87 18.1826ZM159.617 17.9306C157.287 18.6683 154.881 21.3065 154.102 23.9766C153.484 26.0946 153.479 26.4918 154.049 28.4254C154.677 30.5608 156.121 32.4908 158.01 33.7195C159.534 34.7111 162.889 35.2361 164.638 34.7568C166.078 34.3621 166.111 34.3071 166.111 32.3496C166.111 31.2479 166.047 30.3465 165.968 30.3465C165.889 30.3465 165.265 30.5402 164.581 30.7768C162.886 31.3636 160.288 30.6356 159.207 29.2711C157.934 27.6642 158.033 24.2467 159.393 22.8971C160.913 21.3881 163.272 20.8697 165.124 21.6377L166.611 22.2545L166.333 20.335C166.18 19.2794 165.758 18.1882 165.394 17.91C164.602 17.3041 161.562 17.3151 159.617 17.9306ZM68.3333 26.3021V34.7953H70.3704C72.0175 34.7953 72.418 34.6598 72.4628 34.0875C72.4934 33.6984 72.5643 32.2878 72.6209 30.9531C72.6775 29.6185 72.8702 28.461 73.0491 28.3809C73.2279 28.3004 74.2257 29.6654 75.2658 31.4142L77.157 34.593L79.4674 34.7144C80.7381 34.7811 81.7778 34.718 81.7778 34.574C81.7778 34.4305 80.7637 32.7682 79.5244 30.8807L77.2706 27.4486L78.5059 26.0525C80.93 23.3117 79.6935 19.2046 76.1499 18.2275C75.324 17.9998 73.2271 17.8125 71.4907 17.8113L68.3333 17.8089V26.3021ZM87.3128 22.561C86.6748 25.1745 85.7447 28.9968 85.2456 31.0542L84.3379 34.7953H86.2666H88.1953L88.9074 31.1553C89.2989 29.1534 89.7646 27.5154 89.9414 27.5154C90.1186 27.5154 91.028 29.0834 91.9626 31C92.9269 32.9777 93.8146 34.3322 94.0163 34.132C94.2114 33.9383 95.0935 32.422 95.9767 30.7626C96.8596 29.1032 97.7502 27.6901 97.9555 27.6222C98.1609 27.5542 98.565 28.7307 98.8539 30.2368C99.795 35.1427 99.5868 34.7953 101.581 34.7953C102.736 34.7953 103.373 34.6161 103.379 34.2897C103.383 34.0119 102.521 30.1879 101.462 25.7925C99.9758 19.6212 99.4291 17.9169 99.0624 18.3104C98.8013 18.5907 97.6092 20.6856 96.4131 22.9655C95.2173 25.2453 94.1279 27.1109 93.9923 27.1109C93.857 27.1109 92.6576 25.0184 91.3266 22.4603C89.996 19.9027 88.8096 17.8097 88.6903 17.8093C88.5709 17.8093 87.9512 19.9475 87.3128 22.561ZM112.277 21.5685C111.238 23.6158 109.471 27.0199 108.35 29.1331C107.229 31.2463 106.185 33.3955 106.029 33.9087C105.757 34.8021 105.827 34.8369 107.657 34.7176C109.414 34.6032 109.642 34.4624 110.477 32.9753L111.385 31.3575L114.481 31.2399L117.577 31.1222L118.395 32.9587C119.21 34.7884 119.221 34.7953 121.273 34.7953C122.406 34.7953 123.333 34.6966 123.333 34.5761C123.333 34.4555 122.441 32.6809 121.351 30.6328C120.26 28.5843 118.322 24.8615 117.043 22.3588C115.764 19.8565 114.594 17.8174 114.442 17.8275C114.291 17.8376 113.316 19.5209 112.277 21.5685ZM125.799 19.3255C125.118 21.7614 125.176 21.8533 127.407 21.8533H129.444V28.3243V34.7953H131.481H133.519V28.3243V21.8533H134.761C135.827 21.8533 136.112 21.6122 136.77 20.1522C137.192 19.2167 137.447 18.3067 137.337 18.13C137.227 17.9533 134.682 17.8089 131.68 17.8089H126.223L125.799 19.3255ZM141.034 18.3261C140.924 18.6109 140.884 22.3875 140.945 26.7182L141.056 34.593L145.618 34.7071C150.593 34.8317 150.573 34.841 151.192 32.2675L151.46 31.1553H148.373H145.286L145.412 29.4365L145.537 27.7176H147.37H149.204L149.329 25.9987L149.454 24.2799H147.394H145.333V22.6621V21.0444H148.193H151.053L150.807 19.9322C150.672 19.3207 150.491 18.5927 150.405 18.3144C150.179 17.5864 141.315 17.5978 141.034 18.3261ZM168.556 26.3021V34.7953H170.577H172.598L172.716 31.2564L172.833 27.7176H175.278H177.722L177.926 31.1553L178.13 34.593L180.065 34.7164L182 34.8398V26.3021V17.7644L180.065 17.8877L178.13 18.0111L178.009 20.9623L177.89 23.9131L175.361 23.7933L172.833 23.6732L172.714 20.7411L172.594 17.8089H170.575H168.556V26.3021ZM60.36 22.811C61.6299 24 61.8148 24.4166 61.8148 26.0869C61.8148 27.7241 61.6148 28.1993 60.4296 29.3758C59.3064 30.4908 58.7295 30.7509 57.3806 30.7509C52.9036 30.7509 51.1574 24.5731 54.9806 22.2593C57.0005 21.0367 58.6452 21.2053 60.36 22.811ZM74.8787 21.8674C75.9926 22.4591 75.9233 24.4599 74.761 25.2679C73.1697 26.3745 72.8148 26.0841 72.8148 23.6732C72.8148 21.3065 73.1953 20.9732 74.8787 21.8674ZM115.499 26.3021L116.305 27.9198H114.523C113.543 27.9198 112.741 27.8349 112.741 27.7314C112.741 27.2586 114.145 24.6843 114.403 24.6843C114.562 24.6843 115.056 25.4123 115.499 26.3021Z" fill="#A6A6A6"/>
</svg>
