<svg width="200" height="51" viewBox="0 0 200 51" fill="none" xmlns="http://www.w3.org/2000/svg">
<path fill-rule="evenodd" clip-rule="evenodd" d="M82.3549 0.30797C77.2497 0.495337 74.9061 0.70267 73.9071 1.05467C70.6686 2.19546 59.2259 5.78032 48.4099 9.04235C45.8175 9.82407 44.6833 10.3241 44.1485 10.9212C43.4536 11.6965 43.4294 11.8691 43.6303 14.6059L43.841 17.4769L42.9001 18.5486C41.5404 20.097 41.7435 20.399 43.3581 19.2299C44.1276 18.6727 45.1847 17.906 45.7075 17.5258C46.2301 17.1455 47.0438 16.8347 47.5157 16.8347C48.8867 16.8347 48.8213 16.3644 47.2592 14.988C46.1161 13.9809 45.7767 13.811 45.6965 14.2075C45.6406 14.4861 45.761 14.9146 45.9647 15.16C46.2663 15.5237 46.2258 15.606 45.7441 15.606C44.3657 15.606 44.0287 14.2487 45.0508 12.8133C46.3677 10.9642 47.4493 10.5806 68.8992 4.35326C74.3491 2.77077 75.1254 2.4673 75.2805 1.85667L75.4569 1.16126L76.3395 1.81367C77.1163 2.38805 77.5105 2.44733 79.6347 2.30819C80.9618 2.22127 83.4301 1.93223 85.1197 1.66592C89.0287 1.04945 96.7439 1.02672 100.964 1.61893C108.696 2.70443 116.602 5.55763 123.127 9.61735C125.803 11.2828 126.973 11.5196 133.559 11.7315C139.457 11.921 144.53 12.8032 149.867 14.5675C153.96 15.92 155.771 17.0998 156.844 19.111C157.286 19.9407 157.952 20.8216 158.324 21.0683C158.94 21.4774 159 21.4657 159 20.9374C159 20.2196 157.93 18.1579 157.048 17.1768C153.773 13.5349 144.016 10.7803 131.967 10.0962C126.61 9.79182 124.224 9.12252 119.726 6.66218C111.428 2.12328 109.024 1.1757 103.86 0.409026C100.411 -0.103008 94.3217 -0.131575 82.3549 0.30797ZM88.1916 3.20295C82.4585 3.65079 72.7677 5.39883 66.9245 7.03937C62.4675 8.29073 62.4155 8.33527 64.5057 9.1173C67.809 10.3533 71.1058 10.6967 82.6621 11.0097C107.517 11.6824 114.395 11.9158 114.883 12.1029C115.591 12.3747 116.065 13.3589 115.835 14.0816C115.705 14.4929 115.261 14.7451 114.436 14.8771C112.897 15.1232 112.865 15.606 114.388 15.606C115.302 15.606 115.727 15.403 116.386 14.652C116.877 14.092 117.407 13.7683 117.668 13.8684C117.936 13.9713 118.187 13.8018 118.302 13.44C118.606 12.4804 119.583 12.1444 121.406 12.3723C122.315 12.4856 123.058 12.5047 123.058 12.4143C123.058 12.1035 119.468 9.81363 116.582 8.28305C113.165 6.47143 109.38 5.09228 104.934 4.03873C102.192 3.38878 100.811 3.26008 95.7179 3.17868C92.4232 3.12616 89.0364 3.13691 88.1916 3.20295ZM92.2337 5.02471C92.3388 5.29839 92.12 5.81656 91.7198 6.24259C91.0194 6.98807 90.8043 8.26862 91.2252 9.19132C91.4015 9.57865 91.2955 9.67172 90.7432 9.61459C90.3537 9.57435 87.8463 9.52367 85.1713 9.50217L80.3081 9.46285L80.9474 8.42834C81.2991 7.85948 81.5869 7.03814 81.5869 6.60351C81.5869 6.16888 81.7473 5.71428 81.943 5.59326C82.3374 5.34938 88.2792 4.66103 90.5819 4.59223C91.6546 4.56028 92.1001 4.6767 92.2337 5.02471ZM95.0921 5.65746C96.0107 6.70333 96.6395 7.89173 96.6395 8.581C96.6395 9.14033 94.1297 7.48812 93.691 6.64006C93.1393 5.57329 93.1384 4.5483 93.6892 4.5483C93.9251 4.5483 94.5567 5.04744 95.0921 5.65746ZM104.473 5.31804C107.207 5.88045 112.714 7.62143 112.485 7.85088C112.404 7.93197 111.919 7.85211 111.407 7.67365C110.418 7.32902 110.035 7.54188 110.447 8.20841C110.585 8.43141 110.601 8.97754 110.482 9.42231C110.304 10.0861 110.091 10.2277 109.289 10.2135C108.752 10.2043 106.229 10.1696 103.682 10.1368L99.0507 10.0772L99.1066 9.23248C99.2064 7.7145 99.1072 7.3585 98.3389 6.48525L97.5807 5.62336L97.8781 6.69627C98.5979 9.2933 97.9116 9.9239 97.1381 7.37632C96.8966 6.58108 96.6057 5.69892 96.4917 5.41572C96.3326 5.02133 96.4874 4.86591 97.1528 4.75164C98.5297 4.51544 101.801 4.76854 104.473 5.31804ZM80.6654 6.19621C80.6654 6.87626 79.4394 8.23422 78.8256 8.23422C78.5141 8.23422 77.9756 8.61417 77.6287 9.0789C76.6368 10.4083 76.8746 9.27303 77.9725 7.43744C78.7918 6.06782 79.1146 5.77694 79.8157 5.77694C80.329 5.77694 80.6654 5.94311 80.6654 6.19621ZM76.7661 6.67845C76.4193 8.00385 75.8384 8.15036 70.2696 8.31623C66.8001 8.41943 65.047 8.36998 65.2424 8.17463C65.4076 8.00937 67.7905 7.54341 70.5378 7.13919C73.285 6.73497 75.6046 6.33198 75.6928 6.24413C75.7807 6.15598 76.0931 6.0841 76.3871 6.0841C76.7643 6.0841 76.8758 6.25887 76.7661 6.67845ZM93.073 7.69669C93.2207 8.32329 93.1562 8.54137 92.8235 8.54137C92.1809 8.54137 91.9434 8.01337 92.1732 7.09742C92.3996 6.1956 92.7787 6.44839 93.073 7.69669ZM115.532 9.17904C117.085 9.54394 119.679 10.7151 119.679 11.0512C119.679 11.7275 113.271 10.9022 111.999 10.0621C111.608 9.80318 111.651 9.66343 112.289 9.12897C112.776 8.72137 113.261 8.56902 113.671 8.69557C114.019 8.80246 114.856 9.02023 115.532 9.17904ZM53.0833 13.4412C50.1625 13.5745 47.6978 13.7582 47.6063 13.8497C47.2598 14.1962 51.7175 14.4523 54.8367 14.2653C63.1144 13.7689 67.5752 13.7013 71.2959 14.0162C77.1351 14.5101 86.1869 14.7583 85.378 14.4026C85.0131 14.2419 83.6854 13.9677 82.4274 13.7926C79.3914 13.3705 59.7801 13.1356 53.0833 13.4412ZM119.109 14.9579C118.283 15.4816 119.379 15.5941 125.741 15.6386C133.026 15.6896 135.542 15.2209 129.768 14.8882C124.914 14.6084 119.605 14.6434 119.109 14.9579ZM99.5578 16.2204C100.402 16.5831 102.836 16.5831 103.398 16.2204C103.715 16.0152 103.095 15.9279 101.401 15.9396C99.7458 15.951 99.144 16.0425 99.5578 16.2204ZM146.098 16.4305C146.689 16.6934 147.404 17.0245 147.687 17.1664C148.563 17.6069 153.329 18.184 153.954 17.9257C154.479 17.7082 154.441 17.6483 153.624 17.3986C152.508 17.0571 146.129 15.9101 145.483 15.935C145.23 15.9445 145.506 16.1675 146.098 16.4305ZM83.855 18.3351C80.7283 19.1454 78.0852 21.4605 77.0285 24.3149C75.2956 28.9966 76.2359 33.9803 79.4427 37.1072C82.2529 39.8474 85.7903 41.1119 88.8619 40.4743C90.5874 40.1161 92.5415 38.9594 92.4122 38.3727C92.3683 38.1727 93.0373 38.5665 93.899 39.2475C95.5413 40.5455 95.6758 40.6008 96.4607 40.2995C96.8745 40.1407 96.9467 39.4146 96.9467 35.4025C96.9467 31.203 96.8862 30.6482 96.3888 30.2904C96.0819 30.0696 95.7409 29.6472 95.6307 29.3514C95.4519 28.8722 94.929 28.8139 90.8123 28.8139H86.1949V30.6568C86.1949 32.2949 86.2631 32.4998 86.8093 32.4998C87.1506 32.4998 87.4236 32.7047 87.4236 32.9605C87.4236 33.2139 87.5275 33.4317 87.654 33.4449C89.3028 33.6129 89.4957 33.8716 88.4727 34.5415C87.3785 35.2587 85.5034 35.2605 84.713 34.5455C84.1612 34.046 84.1081 33.6271 84.1508 30.0984C84.1901 26.8591 84.2973 26.0393 84.7864 25.2309C85.4481 24.138 86.421 23.5922 87.7078 23.5922C88.6954 23.5922 89.1249 23.9949 89.429 25.2066C89.5663 25.754 89.8443 26.0495 90.2216 26.0495C90.554 26.0495 90.8028 26.2638 90.8028 26.5498C90.8028 26.982 91.0645 27.0207 92.7228 26.8336C96.0638 26.4564 96.3323 26.3597 96.3323 25.5334C96.3323 24.5508 94.2071 21.4494 92.736 20.2853C92.0952 19.7782 91.0178 19.1295 90.342 18.8435C88.9436 18.2519 85.2837 17.965 83.855 18.3351ZM97.766 18.5753C97.6532 18.6878 97.5611 19.7244 97.5611 20.879C97.5611 22.9131 97.5847 22.9779 98.3291 22.9779C98.8071 22.9779 99.097 23.152 99.097 23.4386C99.097 23.8041 99.5406 23.8993 101.247 23.8993H103.398V31.5783C103.398 39.0921 103.411 39.2573 104.022 39.2573C104.365 39.2573 104.725 39.4646 104.823 39.718C104.962 40.0823 105.603 40.1788 107.88 40.1788H110.76L110.842 32.1158L110.924 24.0529L113.842 23.8993L116.761 23.7458L116.858 22.3881C116.98 20.6766 116.717 19.5991 116.176 19.5991C115.946 19.5991 115.685 19.3227 115.596 18.9848C115.441 18.3886 115.177 18.3705 106.703 18.3705C101.9 18.3705 97.8784 18.4626 97.766 18.5753ZM155.006 19.2919C155.608 19.6808 156.015 19.6808 155.774 19.2919C155.67 19.123 155.351 18.9869 155.065 18.9894C154.618 18.9937 154.609 19.0355 155.006 19.2919ZM45.338 42.8505C41.7837 44.6805 43.0211 50.3706 47.073 50.8295C47.8124 50.9134 48.4818 50.7973 48.8575 50.5202C49.3825 50.1329 49.5475 50.135 50.1631 50.5383L50.8675 51V49.1469C50.8675 46.4482 50.7766 46.322 48.8283 46.322C46.8617 46.322 46.309 46.9645 47.4684 47.9032C48.0631 48.3848 48.0932 48.4951 47.673 48.6561C46.6457 49.0505 46.2596 48.5578 46.2596 46.8537C46.2596 45.9531 46.4254 45.0503 46.6282 44.8476C47.1836 44.2923 47.9077 44.4035 48.35 45.1118C48.6397 45.5753 49.0022 45.719 49.706 45.6493C51.0328 45.5178 51.0807 45.0098 49.8888 43.7093C48.62 42.3252 46.9649 42.0128 45.338 42.8505ZM64.788 42.7786C61.9873 43.9965 62.1308 48.9396 65.0089 50.3912C66.7611 51.2752 68.263 51.1054 69.4835 49.885C70.4284 48.9402 70.5279 48.6727 70.5279 47.08C70.5279 43.4639 67.8415 41.4504 64.788 42.7786ZM107.084 42.5457C106.064 42.9186 105.241 43.9876 105.241 44.9398C105.241 46.1586 106.183 47.0785 108.101 47.7318C108.894 48.0018 109.465 48.348 109.37 48.501C109.101 48.9356 107.597 48.8278 106.875 48.3219C106.288 47.9109 106.152 47.9213 105.529 48.4257C104.726 49.076 104.893 49.5054 106.216 50.1891C109.37 51.8198 112.957 50.2229 111.97 47.628C111.481 46.3407 110.869 45.8152 109.373 45.3962C108.621 45.1858 108.006 44.8934 108.006 44.7462C108.006 44.3872 109.446 44.4059 110.134 44.7742C110.513 44.9772 110.855 44.9456 111.228 44.6731C112.762 43.5517 109.256 41.7517 107.084 42.5457ZM122.197 42.8428C120.919 43.4725 120.293 44.6667 120.293 46.4755C120.293 48.3296 120.889 49.4108 122.337 50.1885C124.011 51.0872 125.498 51.1198 126.564 50.2816C127.834 49.2824 128.326 47.8934 128.01 46.1997C127.667 44.3681 126.934 43.2983 125.655 42.7638C124.315 42.2039 123.454 42.2235 122.197 42.8428ZM152.623 42.7712C152.073 43.0194 151.485 43.584 151.317 44.0256C150.682 45.6972 151.659 47.0186 154.039 47.7073C154.628 47.8777 155.168 48.1886 155.238 48.3984C155.426 48.9626 153.478 48.8812 152.833 48.2976C152.383 47.89 152.2 47.8783 151.65 48.2208C151.292 48.4435 151.037 48.8183 151.083 49.0538C151.314 50.237 154.241 51.2651 156.071 50.8059C157.271 50.5046 158.079 49.5312 158.072 48.3953C158.062 46.9655 157.207 46.0468 155.294 45.4085C153.994 44.9754 153.749 44.8009 154.189 44.6221C154.499 44.4959 155.202 44.5303 155.751 44.6986C156.503 44.9296 156.891 44.9014 157.325 44.5838C157.881 44.1774 157.875 44.1356 157.142 43.4036C156.173 42.4349 154.033 42.1354 152.623 42.7712ZM51.4819 46.3263C51.4819 50.4622 51.6677 50.9294 53.3121 50.9294H54.2644L54.1787 46.8595L54.093 42.7896L52.7875 42.6953L51.4819 42.6007V46.3263ZM55.1682 46.4141C55.1682 50.5853 55.3015 50.9294 56.9192 50.9294H57.933V49.2025C57.933 47.7558 58.003 47.5334 58.3636 47.8329C58.6005 48.0292 58.8877 48.5645 59.002 49.0222C59.3181 50.2886 60.0584 50.9294 61.2061 50.9294C62.4069 50.9294 62.4546 50.6781 61.6076 48.8115C61.0067 47.4873 61.0061 47.4538 61.5794 47.0527C62.4232 46.4614 62.6364 45.2472 62.0835 44.1783C61.4073 42.871 60.7545 42.6361 57.7996 42.6361H55.1682V46.4141ZM72.9855 43.3711C72.9855 44.1135 73.4911 44.479 74.5178 44.479C74.9562 44.479 75.1236 44.8083 75.2861 45.9893C75.4004 46.8202 75.4538 48.0504 75.4053 48.7233C75.2962 50.233 75.8289 50.9294 77.0933 50.9297L78.0542 50.9303V47.7813V44.6326L79.2062 44.5374C80.3594 44.4418 80.5634 44.1427 80.1717 43.122C80.0169 42.7181 79.3933 42.6361 76.4854 42.6361C72.9987 42.6361 72.9855 42.6388 72.9855 43.3711ZM80.6654 46.365C80.6654 50.4612 80.85 50.8996 82.5853 50.9195C83.4058 50.9291 83.4301 50.8805 83.4301 49.24C83.4301 47.2631 83.87 47.0521 84.5517 48.7025C85.2481 50.3888 85.845 50.9294 87.0105 50.9294C87.5757 50.9294 88.038 50.8513 88.038 50.7558C88.038 50.6606 87.7419 49.8942 87.38 49.0532L86.722 47.5239L87.38 46.9111C88.293 46.0603 88.25 44.4901 87.2848 43.4488C86.5715 42.6794 86.3755 42.6361 83.5985 42.6361H80.6654V46.365ZM90.9874 42.8928C90.9002 43.0341 90.2735 44.706 89.5949 46.6085C88.5357 49.5769 88.422 50.1286 88.7919 50.4984C89.029 50.7355 89.582 50.9294 90.0207 50.9294C90.6609 50.9294 90.8544 50.7478 91.0025 50.0079C91.1668 49.1868 91.3081 49.0867 92.3004 49.0882C93.2149 49.0901 93.5076 49.2547 93.9371 50.0097C94.3641 50.7598 94.6615 50.9294 95.5499 50.9294C96.1492 50.9294 96.6395 50.8154 96.6395 50.676C96.6395 50.382 95.474 46.9618 94.5017 44.4022L93.8305 42.6361H92.4884C91.7502 42.6361 91.075 42.7515 90.9874 42.8928ZM97.2539 46.4141C97.2539 50.4121 97.4176 50.9294 98.6836 50.9294C99.3228 50.9294 99.383 50.7736 99.4669 48.911L99.5578 46.893L101.101 48.8342C102.371 50.4305 102.806 50.7758 103.551 50.7758H104.458L104.481 47.0899C104.493 45.0626 104.447 43.2313 104.379 43.02C104.31 42.809 103.792 42.6361 103.227 42.6361H102.2L102.108 44.3608L102.015 46.0855L100.787 44.3675C99.6724 42.8093 99.4506 42.6487 98.4059 42.6428L97.2539 42.6361V46.4141ZM112.614 46.3438C112.614 50.4487 112.803 50.9294 114.418 50.9294C115.306 50.9294 115.349 50.8679 115.438 49.4704L115.532 48.0113L116.805 47.9631C119.234 47.8707 120.324 46.5852 119.665 44.5893C119.131 42.9724 118.381 42.6361 115.31 42.6361H112.614V46.3438ZM128.588 46.365C128.588 50.4612 128.772 50.8996 130.508 50.9195C131.317 50.9291 131.352 50.8649 131.352 49.4117C131.352 47.4864 131.839 47.1663 132.465 48.6803C133.17 50.3894 133.763 50.9294 134.933 50.9294C136.145 50.9294 136.174 50.7699 135.286 48.9433L134.611 47.5549L135.286 46.9265C136.231 46.0461 136.193 44.377 135.206 43.3901C134.511 42.6947 134.224 42.6361 131.52 42.6361H128.588V46.365ZM136.268 43.3711C136.268 44.1203 136.773 44.479 137.829 44.479C138.367 44.479 138.418 44.7238 138.418 47.2864C138.418 50.3737 138.695 50.9005 140.327 50.9195L141.161 50.9294L141.249 47.781L141.336 44.6326H142.258C143.361 44.6326 143.594 44.378 143.404 43.384C143.263 42.6437 143.226 42.6361 139.764 42.6361C136.281 42.6361 136.268 42.6388 136.268 43.3711ZM143.947 46.3542C143.947 50.965 143.897 50.906 147.883 50.9195L150.743 50.9294L150.6 50.0266C150.378 48.6171 150.169 48.4721 148.358 48.4721C147.138 48.4721 146.697 48.3643 146.787 48.0881C146.856 47.8771 147.36 47.6603 147.905 47.6065C149.039 47.495 149.369 46.9618 148.875 46.0388C148.648 45.6127 148.231 45.4005 147.623 45.4005C147.122 45.4005 146.712 45.2623 146.712 45.0933C146.712 44.9222 147.538 44.7862 148.575 44.7862H150.438L150.341 43.7879L150.245 42.7896L147.096 42.7021L143.947 42.6146V46.3542ZM67.7632 46.4488C67.7632 48.1944 67.3073 48.9129 66.3188 48.7252C65.552 48.5793 65.3784 45.9574 66.0662 44.9081C66.469 44.2935 66.6622 44.2185 67.1592 44.4845C67.644 44.7441 67.7632 45.1317 67.7632 46.4488ZM59.4115 45.0165C59.3553 45.3123 58.9995 45.5983 58.6211 45.6524C58.0985 45.7267 57.933 45.5974 57.933 45.1148C57.933 44.6366 58.129 44.479 58.7234 44.479C59.3107 44.479 59.4877 44.6172 59.4115 45.0165ZM85.2165 45.0165C85.155 45.3406 84.7802 45.5928 84.2721 45.6511C83.5945 45.7295 83.4301 45.6244 83.4301 45.1136C83.4301 44.6099 83.6249 44.479 84.3741 44.479C85.1074 44.479 85.2957 44.5991 85.2165 45.0165ZM117.068 45.0933C117.068 45.3676 116.726 45.5934 116.223 45.6511C115.406 45.7451 115.061 45.2057 115.596 44.6707C115.971 44.2956 117.068 44.6105 117.068 45.0933ZM125.149 46.2701C125.248 48.007 124.887 48.7792 123.975 48.7792C123.3 48.7792 123.058 48.1812 123.058 46.5118C123.058 45.0632 123.515 44.4117 124.437 44.5441C124.954 44.6182 125.07 44.9014 125.149 46.2701ZM133.139 45.0165C133.077 45.3406 132.703 45.5928 132.194 45.6511C131.517 45.7295 131.352 45.6244 131.352 45.1136C131.352 44.6099 131.547 44.479 132.296 44.479C133.03 44.479 133.218 44.5991 133.139 45.0165ZM92.7572 46.4755C92.8647 46.7563 92.7575 46.9363 92.4828 46.9363C92.2346 46.9363 92.0316 46.729 92.0316 46.4755C92.0316 46.2221 92.1551 46.0148 92.3059 46.0148C92.4567 46.0148 92.6598 46.2221 92.7572 46.4755Z" fill="#A6A6A6"/>
</svg>
