<svg width="200" height="51" viewBox="0 0 200 51" fill="none" xmlns="http://www.w3.org/2000/svg">
<path fill-rule="evenodd" clip-rule="evenodd" d="M55.6342 0.281241C49.8596 1.3843 45.4728 3.7013 41.531 7.73002C34.2919 15.1284 32.4229 26.5146 36.8847 36.0329C40.0145 42.7092 45.8437 47.6258 53.0505 49.6676C55.7485 50.4321 60.7541 50.7044 63.6165 50.2429C71.7304 48.9345 78.6877 43.8329 82.3477 36.508C85.5343 30.1306 85.847 22.7271 83.2183 15.9029C81.5996 11.701 77.8845 7.02321 74.098 4.41885C72.0796 3.03069 68.3505 1.35489 65.8746 0.723598C62.9327 -0.0267664 58.294 -0.227015 55.6342 0.281241ZM92.8003 0.917906C92.4746 1.24317 92.594 1.57776 93.036 1.57776C93.2694 1.57776 93.4604 1.38685 93.4604 1.15351C93.4604 0.711718 93.1257 0.592361 92.8003 0.917906ZM66.7234 3.21454C70.2332 4.40019 72.801 5.89724 75.2705 8.19755C83.257 15.6361 85.1532 26.4611 80.153 36.0691C76.1444 43.7718 68.4665 48.3589 59.6501 48.3187C52.8575 48.2879 47.3359 45.8725 42.7841 40.9406C38.6821 36.4962 36.5913 31.1766 36.5913 25.1836C36.5913 18.3785 39.6152 11.9366 44.8959 7.49187C49.3959 3.70413 54.2363 2.07867 60.4989 2.25205C63.6873 2.34057 64.516 2.4687 66.7234 3.21454ZM92.6764 4.74214C92.8512 5.26651 93.4604 5.35334 93.4604 4.85386C93.4604 4.60779 93.2589 4.40613 93.0125 4.40613C92.766 4.40613 92.6147 4.55716 92.6764 4.74214ZM147.544 6.51891C136.777 8.96743 132.103 22.0817 138.963 30.5942C143.544 36.2778 151.171 37.9644 157.682 34.733C158.536 34.3093 159.332 33.9201 159.451 33.8683C159.569 33.8163 159.666 34.2982 159.666 34.9389V36.1036L162.566 36.023L165.466 35.9424V27.4573V18.9722L161.364 18.908L157.261 18.8438L154.361 21.6461C152.766 23.1876 151.461 24.5209 151.461 24.6094C151.461 24.6979 153.185 24.7703 155.291 24.7703C159.118 24.7703 159.12 24.7706 158.796 25.3767C158.116 26.6455 156.234 28.3734 154.668 29.1653C153.306 29.8543 152.693 29.9898 150.907 29.9957C149.134 30.0017 148.501 29.869 147.16 29.2109C142.698 27.0203 140.837 21.7796 142.991 17.4701C144.603 14.246 147.307 12.6044 151.001 12.607C152.498 12.6081 153.334 12.7823 154.629 13.3633L156.312 14.1182L158.484 11.9392L160.656 9.75993L159.949 9.19454C156.884 6.74546 151.579 5.60111 147.544 6.51891ZM103.363 21.3788V36.0838H106.758H110.153V28.0396C110.153 23.6152 110.261 19.9287 110.393 19.8473C110.525 19.7658 111.257 20.125 112.02 20.646C112.783 21.1667 114.595 22.3756 116.047 23.3324L118.688 25.0718L122.979 22.362L127.271 19.6521L127.412 27.7972L127.554 35.9424L131.019 36.0218L134.485 36.1013V21.3684C134.485 9.65444 134.413 6.68013 134.132 6.85322C133.937 6.97315 130.531 9.15919 126.563 11.7112C122.595 14.263 119.204 16.408 119.027 16.4779C118.849 16.5474 117.067 15.5411 115.066 14.2418C113.064 12.9421 110.247 11.1204 108.805 10.1932C107.363 9.26582 105.549 8.09488 104.773 7.59058L103.363 6.67391V21.3788ZM92.6116 8.22441C92.6116 8.45776 92.8025 8.64867 93.036 8.64867C93.2694 8.64867 93.4604 8.45776 93.4604 8.22441C93.4604 7.99108 93.2694 7.80016 93.036 7.80016C92.8025 7.80016 92.6116 7.99108 92.6116 8.22441ZM54.133 14.3142C51.2542 15.9979 48.4766 17.646 47.9603 17.9766L47.0221 18.5779L47.1115 25.689L47.2012 32.8001L48.134 33.3445C48.6472 33.6438 49.1466 33.8089 49.2442 33.7116C49.3416 33.6141 49.4417 30.4169 49.4669 26.6065C49.4918 22.7964 49.5653 19.6332 49.6299 19.5775C49.6946 19.522 52.0065 18.1746 54.7673 16.5834L59.7868 13.6905L60.7813 14.3051C61.3282 14.6428 61.7073 15.03 61.6236 15.1655C61.5398 15.3007 59.3109 16.6416 56.6706 18.1452L51.8695 20.8788V28.1754V35.472L52.8224 36.0606C53.3464 36.3844 53.8537 36.6495 53.9494 36.6495C54.045 36.6495 54.1573 33.3841 54.1989 29.393L54.2744 22.1368L59.0843 19.3571C61.7297 17.8281 64.0596 16.5752 64.2619 16.5726C64.7534 16.5664 66.299 17.3764 66.299 17.64C66.299 17.8318 63.7226 19.3769 58.4539 22.3453L56.4086 23.4976L56.4027 30.8697L56.3964 38.2418L57.3963 38.7184C57.9463 38.9806 58.4556 39.195 58.528 39.195C58.6005 39.195 58.6599 35.9726 58.6599 32.0339V24.873L62.5247 22.6295C64.6504 21.3958 66.8468 20.1296 67.4053 19.8156C70.3104 18.1831 70.8259 17.8623 70.8259 17.6859C70.8259 17.4454 59.969 11.1834 59.6213 11.2233C59.4815 11.2394 57.0118 12.6302 54.133 14.3142ZM92.6116 11.6185C92.6116 11.8518 92.8025 12.0427 93.036 12.0427C93.2694 12.0427 93.4604 11.8518 93.4604 11.6185C93.4604 11.3851 93.2694 11.1942 93.036 11.1942C92.8025 11.1942 92.6116 11.3851 92.6116 11.6185ZM92.6764 15.2071C92.8512 15.7315 93.4604 15.8183 93.4604 15.3188C93.4604 15.0727 93.2589 14.8711 93.0125 14.8711C92.766 14.8711 92.6147 15.0221 92.6764 15.2071ZM92.6116 18.6894C92.6116 18.9227 92.8025 19.1136 93.036 19.1136C93.2694 19.1136 93.4604 18.9227 93.4604 18.6894C93.4604 18.456 93.2694 18.2651 93.036 18.2651C92.8025 18.2651 92.6116 18.456 92.6116 18.6894ZM66.299 23.081L61.0648 26.1438L60.989 32.6694C60.9471 36.2586 60.981 39.195 61.0642 39.195C61.1477 39.195 63.3461 37.9629 65.9502 36.4574C68.554 34.9516 71.0339 33.5196 71.4608 33.2755L72.2369 32.8312L72.2389 28.9187C72.2397 26.7666 72.1381 25.0484 72.0128 25.1004C71.8875 25.1522 70.3605 26.0219 68.6199 27.033L65.4547 28.8715L65.4525 30.0735C65.4513 30.7348 65.5328 31.2756 65.6341 31.2756C65.7351 31.2756 66.7013 30.7665 67.781 30.1442C68.8607 29.522 69.7963 29.0129 69.8605 29.0129C69.9248 29.0129 69.9771 29.5749 69.9771 30.2622V31.5112L66.733 33.3734C64.9489 34.3972 63.421 35.2353 63.3379 35.2353C63.2547 35.2353 63.1893 33.4854 63.1927 31.3463L63.1987 27.4573L67.7105 24.9118L72.2224 22.3662L72.2315 21.1642C72.2374 20.3717 72.12 19.9717 71.8869 19.9901C71.6925 20.0057 69.1778 21.3967 66.299 23.081ZM92.8003 21.8478C92.4746 22.1731 92.594 22.5076 93.036 22.5076C93.2694 22.5076 93.4604 22.3167 93.4604 22.0834C93.4604 21.6416 93.1257 21.5222 92.8003 21.8478ZM92.6764 25.672C92.8512 26.1964 93.4604 26.2832 93.4604 25.7837C93.4604 25.5377 93.2589 25.336 93.0125 25.336C92.766 25.336 92.6147 25.487 92.6764 25.672ZM92.6116 29.1543C92.6116 29.3876 92.8025 29.5786 93.036 29.5786C93.2694 29.5786 93.4604 29.3876 93.4604 29.1543C93.4604 28.921 93.2694 28.73 93.036 28.73C92.8025 28.73 92.6116 28.921 92.6116 29.1543ZM92.7924 32.3204C92.4738 32.6388 92.5986 32.9726 93.036 32.9726C93.2694 32.9726 93.4604 32.853 93.4604 32.7064C93.4604 32.3498 93.0184 32.0944 92.7924 32.3204ZM92.6116 36.2252C92.6116 36.4585 92.8025 36.6495 93.036 36.6495C93.2694 36.6495 93.4604 36.4585 93.4604 36.2252C93.4604 35.9919 93.2694 35.8009 93.036 35.8009C92.8025 35.8009 92.6116 35.9919 92.6116 36.2252ZM103.646 41.1683C103.646 43.2808 103.692 43.4548 104.375 43.9022C105.29 44.5016 106.442 44.1672 106.967 43.1499C107.424 42.2621 107.321 39.1441 106.829 38.9817C106.57 38.8963 106.475 39.359 106.475 40.7039C106.475 42.9612 106.307 43.4375 105.511 43.4375C104.488 43.4375 104.212 42.8846 104.212 40.8354C104.212 39.7417 104.09 38.9121 103.929 38.9121C103.764 38.9121 103.646 39.8529 103.646 41.1683ZM111.78 39.2176C111.203 39.5536 111.113 40.9627 111.64 41.4003C111.836 41.5623 112.377 41.7886 112.843 41.9029C113.806 42.1387 114.131 42.4988 113.908 43.0806C113.799 43.3634 113.391 43.4545 112.526 43.3889C111.006 43.274 110.774 43.7704 112.185 44.1192C113.002 44.3208 113.383 44.2739 113.954 43.9005C115.361 42.9788 114.689 41.5394 112.629 41.0617C111.106 40.7084 112.06 39.38 113.622 39.6783C114.053 39.7609 114.397 39.6998 114.397 39.5412C114.397 38.922 112.657 38.7071 111.78 39.2176ZM118.701 41.5012C118.806 44.8814 119.349 44.9241 119.349 41.5519C119.349 39.8031 119.244 39.066 118.984 38.9792C118.7 38.8847 118.637 39.4425 118.701 41.5012ZM123.734 41.5991C123.734 44.671 124.23 45.2895 124.358 42.3769L124.441 40.4677L125.654 42.3871C126.322 43.4426 126.99 44.2306 127.14 44.1381C127.495 43.9186 127.497 38.9121 127.142 38.9121C126.994 38.9121 126.834 39.7711 126.788 40.8213L126.705 42.7304L125.477 40.8213C124.802 39.7711 124.133 38.9121 123.991 38.9121C123.85 38.9121 123.734 40.1213 123.734 41.5991ZM132.248 41.1508C131.216 43.8273 131.098 44.779 131.923 43.7911C132.269 43.3759 132.767 43.1547 133.354 43.1547C133.94 43.1547 134.438 43.3759 134.784 43.7911C135.184 44.2708 135.318 44.3191 135.325 43.9874C135.339 43.2913 133.735 39.0864 133.413 38.9792C133.254 38.926 132.729 39.9032 132.248 41.1508ZM139.48 39.4295C139.152 39.7926 139.012 40.4644 139.012 41.6856C139.012 43.2424 139.089 43.4746 139.741 43.9022C140.293 44.2634 140.655 44.3152 141.226 44.1144C142.046 43.8261 142.833 42.5197 142.581 41.8647C142.406 41.4073 140.71 41.2948 140.71 41.7405C140.71 41.8961 140.974 42.0233 141.296 42.0233C142.003 42.0233 141.946 42.7975 141.205 43.2644C140.115 43.9503 139.237 42.2906 139.704 40.4287C139.834 39.9134 140.065 39.7607 140.715 39.7607C141.179 39.7607 141.559 39.8879 141.559 40.0435C141.559 40.1991 141.75 40.3263 141.983 40.3263C142.555 40.3263 142.518 39.9482 141.89 39.3802C141.207 38.762 140.064 38.7854 139.48 39.4295ZM146.711 41.5284L146.793 44.1446H148.325C149.3 44.1446 149.901 44.0159 149.976 43.7911C150.059 43.5425 149.709 43.4375 148.797 43.4375C147.602 43.4375 147.5 43.3818 147.5 42.7304C147.5 42.111 147.623 42.0233 148.49 42.0233C149.182 42.0233 149.481 41.8955 149.481 41.5991C149.481 41.3027 149.182 41.1748 148.49 41.1748C147.629 41.1748 147.5 41.0849 147.5 40.4839C147.5 39.8758 147.641 39.7827 148.681 39.7061C149.33 39.6583 149.914 39.4603 149.977 39.2657C150.062 39.0086 149.621 38.9121 148.362 38.9121H146.63L146.711 41.5284ZM154.008 41.441C154.008 44.4402 154.508 45.1985 154.631 42.3854L154.715 40.4677L155.846 42.1648C157.1 44.0462 157.432 44.37 157.766 44.0357C158.131 43.6712 157.879 39.1164 157.487 38.9865C157.25 38.9079 157.121 39.4467 157.062 40.7642L156.978 42.6544L155.787 40.7834C155.132 39.7542 154.464 38.9121 154.302 38.9121C154.12 38.9121 154.008 39.8794 154.008 41.441ZM162.322 39.6289C161.658 40.6414 162.099 41.4766 163.506 41.8709C164.317 42.0986 164.617 42.3333 164.617 42.7395C164.617 43.2178 164.428 43.2936 163.268 43.278C161.816 43.2585 161.597 43.6779 162.832 44.1146C163.84 44.4704 165.007 44.1059 165.364 43.3241C165.801 42.3644 165.297 41.6237 163.927 41.2133C163.092 40.9633 162.778 40.7181 162.778 40.315C162.778 39.7451 163.141 39.6263 164.547 39.736C165.386 39.8017 165.608 39.3641 164.877 39.0838C163.846 38.6881 162.791 38.913 162.322 39.6289ZM92.6116 39.6192C92.6116 39.8526 92.8025 40.0435 93.036 40.0435C93.2694 40.0435 93.4604 39.8526 93.4604 39.6192C93.4604 39.3859 93.2694 39.195 93.036 39.195C92.8025 39.195 92.6116 39.3859 92.6116 39.6192ZM133.846 41.3163C134.143 42.285 134.133 42.3062 133.354 42.3062C132.575 42.3062 132.564 42.285 132.862 41.3163C133.029 40.7718 133.25 40.3263 133.354 40.3263C133.457 40.3263 133.678 40.7718 133.846 41.3163ZM92.753 42.8719C92.5222 43.2452 92.8605 43.7747 93.197 43.5668C93.5407 43.3547 93.5384 42.589 93.1941 42.589C93.0476 42.589 92.8492 42.7163 92.753 42.8719ZM92.6116 46.6901C92.6116 46.9235 92.8025 47.1144 93.036 47.1144C93.2694 47.1144 93.4604 46.9235 93.4604 46.6901C93.4604 46.4568 93.2694 46.2659 93.036 46.2659C92.8025 46.2659 92.6116 46.4568 92.6116 46.6901Z" fill="#A6A6A6"/>
</svg>
