<svg width="200" height="51" viewBox="0 0 200 51" fill="none" xmlns="http://www.w3.org/2000/svg">
<path fill-rule="evenodd" clip-rule="evenodd" d="M97.167 0.762503C95.6715 0.963747 95.3077 1.14731 94.9202 1.89676C94.509 2.69189 94.5086 3.08318 94.918 3.87495C95.3518 4.71417 96.2797 5.07167 97.5695 4.89662C98.1403 4.81916 98.8121 4.82095 99.0624 4.90042C99.6395 5.08353 99.6527 5.8218 99.0845 6.12601C98.4587 6.4609 96.7084 6.41344 96.4095 6.05326C96.0925 5.67115 95.0404 5.84709 95.0404 6.28204C95.0404 6.45799 95.2878 6.84906 95.59 7.15126C96.6112 8.1727 99.898 7.79349 100.524 6.58223C101.043 5.58004 100.942 4.83752 100.185 4.08022C99.5394 3.43508 99.4356 3.40777 97.9183 3.48187C96.5743 3.54745 96.2893 3.49686 96.076 3.15459C95.8729 2.82866 95.9083 2.68719 96.2584 2.42707C96.7516 2.06107 99.0698 1.97959 99.0698 2.32835C99.0698 2.45147 99.372 2.55221 99.7413 2.55221C100.574 2.55221 100.652 1.9525 99.9092 1.27759C99.275 0.701615 98.5845 0.572005 97.167 0.762503ZM106.764 1.38347C105.909 1.51532 105.231 2.47475 105.259 3.51656C105.275 4.12455 105.136 4.64142 104.863 4.98817C104.375 5.60802 104.336 6.10341 104.71 6.9236C105.031 7.62919 105.775 8.04018 107.509 8.47087C108.223 8.64816 109.027 8.8597 109.296 8.94096C109.821 9.09923 109.737 9.28032 110.521 6.3089C110.674 5.728 110.74 5.19322 110.667 5.12047C110.594 5.04772 109.692 4.76745 108.664 4.49771C107.031 4.0697 106.783 3.9392 106.717 3.47291C106.609 2.71002 107.019 2.56385 108.309 2.90433C109.309 3.16802 109.655 3.3968 109.867 3.93472C109.9 4.01799 110.219 4.1588 110.577 4.24744C111.215 4.40593 111.224 4.39541 111.078 3.66319C110.903 2.78859 110.373 2.13853 109.591 1.83834C108.798 1.53412 107.325 1.29706 106.764 1.38347ZM89.9332 2.54773C87.855 3.04558 86.7462 5.79404 87.876 7.64687C89.5448 10.3841 93.8878 9.42202 94.2874 6.2263C94.5726 3.94479 92.2593 1.99034 89.9332 2.54773ZM92.1973 4.28975C92.8702 4.89572 93.0728 5.64921 92.7914 6.50119C92.4742 7.46286 91.8044 7.92467 90.7268 7.92467C88.6331 7.92467 87.9824 5.04772 89.8414 4.01128C90.5576 3.61215 91.5788 3.73281 92.1973 4.28975ZM107.03 4.44779C107.446 4.76253 107.438 4.77685 106.849 4.78357C106.448 4.78827 106.233 4.67366 106.233 4.45495C106.233 4.0312 106.476 4.02896 107.03 4.44779ZM84.7992 4.85005C84.5223 4.9781 84.2955 5.16681 84.2955 5.26888C84.2955 5.37118 85.0673 6.75661 86.0107 8.34753C87.6461 11.1058 87.7498 11.229 88.2492 11.0013C88.5371 10.8701 88.7726 10.6731 88.7726 10.5637C88.7726 10.3738 85.7181 5.05913 85.4369 4.75984C85.3633 4.68127 85.0761 4.72179 84.7992 4.85005ZM108.133 5.73248C109.198 6.01767 109.332 6.23794 108.844 6.90547C108.572 7.27662 108.436 7.28938 107.4 7.04068C106.14 6.73848 105.704 6.38143 105.917 5.8265C106.084 5.39312 106.757 5.36469 108.133 5.73248ZM116.557 6.1869C115.392 6.49313 114.805 6.97598 114.279 8.06368C113.624 9.41643 113.815 10.7591 114.814 11.8181C115.587 12.637 117.311 13.2774 117.699 12.8895C118.1 12.4888 117.767 11.8835 117.005 11.6272C115.244 11.0344 114.668 9.30495 115.841 8.13129C116.903 7.07 118.509 7.26632 119.188 8.54027C119.374 8.88903 119.66 9.04393 120.12 9.04393C120.884 9.04393 120.884 9.04259 120.477 8.0854C119.837 6.58357 118.152 5.76785 116.557 6.1869ZM81.5931 7.19872C80.6711 7.6753 78.6992 9.27473 78.6992 9.54604C78.6992 9.64699 79.6597 10.8836 80.8338 12.2938C82.7758 14.6264 83.0081 14.833 83.4081 14.5832C83.9338 14.255 83.9684 13.8997 83.512 13.521C83.0254 13.1172 83.1131 12.8071 83.887 12.1947C84.5075 11.7035 84.6593 11.6751 85.4821 11.8947C86.2394 12.0968 86.4772 12.0753 86.9034 11.766C87.185 11.5616 87.4185 11.3272 87.4225 11.2451C87.4263 11.1631 87.0014 10.9532 86.4781 10.779C85.6117 10.4902 85.5247 10.3929 85.5039 9.68841C85.4423 7.59919 83.3705 6.28025 81.5931 7.19872ZM106.908 7.74335C106.624 7.84834 106.334 7.87632 106.263 7.80536C106.052 7.59471 106.724 7.28378 107.088 7.42347C107.344 7.52174 107.302 7.59785 106.908 7.74335ZM83.7918 8.65846C83.9458 8.77755 84.0716 9.20668 84.0716 9.61207C84.0716 10.2095 83.895 10.4894 83.1418 11.0859L82.2117 11.8226L81.3581 10.8316L80.5048 9.84063L80.9684 9.34703C81.9343 8.31887 83.013 8.05585 83.7918 8.65846ZM119.688 11.4246C118.444 12.7339 117.426 13.8767 117.426 13.9642C117.426 14.0515 117.607 14.287 117.828 14.4871C118.206 14.8294 118.375 14.7058 120.669 12.4044C123.077 9.98859 123.103 9.95188 122.695 9.50082C122.467 9.24943 122.207 9.04393 122.115 9.04393C122.024 9.04393 120.931 10.1153 119.688 11.4246ZM75.6875 12.9831C74.7274 14.2738 73.9895 15.3778 74.0482 15.4363C74.5353 15.9234 79.2783 19.3412 79.4672 19.3412C79.6013 19.3412 79.8337 19.1444 79.9839 18.904C80.2267 18.5149 80.1464 18.3875 79.2541 17.7469C78.7028 17.3507 78.2515 16.9271 78.2515 16.8051C78.2515 16.6834 78.6634 16.0382 79.1668 15.3714C80.034 14.2225 80.0604 14.1426 79.6705 13.8471C79.0314 13.3627 78.872 13.4458 77.9394 14.7475C77.19 15.7935 77.0075 15.9323 76.6395 15.7356C75.8654 15.3212 75.9626 14.9167 77.2459 13.2118C78.5109 11.5312 78.5803 11.2502 77.8297 10.8486C77.4953 10.6696 77.1591 11.0044 75.6875 12.9831ZM116.917 12.3131C116.843 12.3874 116.65 12.3955 116.488 12.3308C116.31 12.2594 116.363 12.2063 116.624 12.1956C116.86 12.1859 116.992 12.2388 116.917 12.3131ZM82.4977 13.1852C82.4977 13.3083 82.4001 13.258 82.2808 13.0733C82.1615 12.8886 82.0639 12.6368 82.0639 12.5137C82.0639 12.3905 82.1615 12.4409 82.2808 12.6256C82.4001 12.8103 82.4977 13.0621 82.4977 13.1852ZM121.903 13.5745C120.118 14.1966 118.624 14.7325 118.583 14.7656C118.542 14.7987 118.627 15.0474 118.772 15.3183C118.989 15.7228 119.172 15.7891 119.791 15.6886C120.465 15.5793 120.62 15.6599 121.236 16.4369C121.896 17.2701 121.91 17.3314 121.565 17.8581C121.262 18.3204 121.251 18.4831 121.495 18.8749C121.656 19.1314 121.888 19.3374 122.013 19.3327C122.137 19.3282 123.124 18.0207 124.205 16.4273C126.147 13.5673 126.167 13.5228 125.802 12.9658C125.599 12.6556 125.369 12.4111 125.291 12.4228C125.213 12.4342 123.688 12.9526 121.903 13.5745ZM123.32 15.2874C122.699 16.1519 122.692 16.1548 122.359 15.6792C121.941 15.0837 121.965 15.0369 122.857 14.7132C123.963 14.3121 123.994 14.3506 123.32 15.2874ZM78.2515 16.068C78.2515 16.1143 78.0981 16.2797 77.9105 16.4353C77.6256 16.6719 77.5927 16.6581 77.7106 16.3507C77.8311 16.0371 78.2515 15.817 78.2515 16.068ZM122.798 16.5298C122.798 16.5842 122.697 16.6907 122.574 16.7669C122.451 16.843 122.35 16.7984 122.35 16.6681C122.35 16.5379 122.451 16.4311 122.574 16.4311C122.697 16.4311 122.798 16.4754 122.798 16.5298ZM77.5799 17.3265C77.5799 17.4496 77.5356 17.5503 77.4812 17.5503C77.4268 17.5503 77.3202 17.4496 77.2441 17.3265C77.168 17.2034 77.2126 17.1026 77.3429 17.1026C77.4731 17.1026 77.5799 17.2034 77.5799 17.3265ZM82.8405 18.1995C81.6489 18.7524 80.5872 19.9048 80.1638 21.1049C79.6474 22.5687 79.6651 31.2468 80.1874 32.6C80.6366 33.764 81.6616 34.9041 82.7755 35.4783C83.5722 35.8888 84.3076 35.9063 100.806 35.9063H118.005L119.217 35.1787C120.159 34.6131 120.57 34.1783 121.068 33.2236L121.707 31.9962L121.637 26.62C121.575 21.8994 121.517 21.1515 121.154 20.4857C120.608 19.484 119.755 18.7023 118.657 18.1964C117.812 17.8073 116.804 17.784 100.749 17.784C84.6469 17.784 83.688 17.8062 82.8405 18.1995ZM118.027 20.4492C119.251 21.1953 119.32 21.5031 119.403 26.5221C119.464 30.271 119.415 31.2806 119.137 31.9456C118.752 32.8681 117.622 33.6657 116.698 33.6668C116.085 33.6677 116.083 33.6626 116.083 32.086C116.083 29.3572 117.824 29.6384 100.926 29.6384C87.5687 29.6384 86.1962 29.672 85.8242 30.0089C85.4983 30.3037 85.4148 30.7149 85.4148 32.0235C85.4148 33.6366 85.404 33.6677 84.8439 33.6677C83.9931 33.6677 83.0039 33.0734 82.6204 32.332C82.3471 31.8033 82.2815 30.7243 82.2842 26.7955C82.2878 21.3861 82.3605 21.04 83.6271 20.4049C84.3488 20.0427 85.6426 20.0134 100.861 20.0138C116.758 20.0143 117.338 20.0291 118.027 20.4492ZM84.4202 39.0901C84.2286 39.3637 84.0716 39.6797 84.0716 39.7926C84.0716 39.9052 83.6687 40.4346 83.1762 40.9689C82.4223 41.7866 82.281 42.0915 82.2817 42.8967C82.2826 43.9493 82.8828 45.1353 83.6118 45.5254C84.2881 45.8874 84.1789 46.3729 83.1762 47.4606C82.4393 48.26 82.2808 48.5922 82.2808 49.3372C82.2808 50.0793 82.3791 50.2872 82.8261 50.4909C83.5386 50.8155 84.0128 50.6145 84.3436 49.8474C84.4911 49.5053 84.9939 48.7997 85.4611 48.2791C86.2068 47.4481 86.3102 47.1952 86.3102 46.2035C86.3102 45.197 86.2128 44.9685 85.4148 44.1029C84.9223 43.5685 84.5193 43.0532 84.5193 42.9576C84.5193 42.862 84.9223 42.3467 85.4148 41.8124C86.1338 41.0323 86.3102 40.6725 86.3102 39.9853C86.3102 39.5148 86.1893 39.0089 86.0415 38.8611C85.6142 38.4338 84.7992 38.5488 84.4202 39.0901ZM92.7247 39.0019C92.521 39.2271 92.3542 39.521 92.3542 39.6551C92.3542 39.7892 91.9633 40.3059 91.4854 40.8033C90.0286 42.3194 90.0881 43.9323 91.6551 45.4059C92.0397 45.7674 92.3542 46.1665 92.3542 46.2928C92.3542 46.4191 91.9613 46.929 91.4814 47.4262C90.4047 48.541 90.1506 49.5022 90.7398 50.2297C91.2907 50.9102 92.2694 50.7092 92.5966 49.8485C92.7211 49.5208 93.2212 48.8206 93.7078 48.2927C94.4365 47.5023 94.5927 47.1716 94.5927 46.4213C94.5927 45.3497 94.1524 44.403 93.366 43.7845C92.6157 43.1945 92.6526 42.9055 93.6028 41.9324C94.9213 40.5821 94.9153 38.5925 93.5928 38.5925C93.319 38.5925 92.9284 38.7767 92.7247 39.0019ZM100.988 38.9442C100.795 39.1378 100.637 39.4212 100.637 39.5739C100.637 39.7268 100.322 40.1478 99.9377 40.5093C98.3411 42.0105 98.2733 43.7628 99.7557 45.2103C100.24 45.6833 100.637 46.1343 100.637 46.2124C100.637 46.2906 100.243 46.7683 99.7617 47.2742C98.708 48.382 98.4311 49.3484 98.9433 50.1301C99.1416 50.4327 99.496 50.6805 99.7306 50.6805C100.232 50.6805 100.861 50.1124 100.861 49.6589C100.861 49.4841 101.173 49.063 101.555 48.7236C102.991 47.4461 103.258 45.9752 102.308 44.5765C101.995 44.117 101.646 43.7411 101.532 43.7411C101.418 43.7411 101.218 43.5423 101.088 43.2992C100.891 42.931 100.967 42.7541 101.55 42.2359C102.423 41.4598 102.875 40.6043 102.875 39.7308C102.875 38.7044 101.713 38.22 100.988 38.9442ZM109.188 38.8611C109.04 39.0089 108.919 39.2923 108.919 39.4908C108.919 39.6894 108.608 40.1478 108.228 40.5093C107.315 41.3768 106.905 42.2006 106.905 43.1629C106.905 43.7798 107.125 44.198 107.922 45.0961L108.941 46.2422L108.042 47.2171C107.074 48.2676 106.777 49.0216 106.993 49.8821C107.265 50.9662 108.845 50.8834 109.067 49.7733C109.141 49.4057 109.516 48.8823 109.935 48.5627C110.791 47.9095 111.261 46.7103 111.066 45.6727C110.985 45.2429 110.566 44.592 110.037 44.0749C109.545 43.5952 109.143 43.0939 109.143 42.9614C109.143 42.8289 109.504 42.3796 109.946 41.963C111.151 40.8268 111.492 39.6301 110.806 38.9442C110.389 38.5267 109.565 38.4844 109.188 38.8611ZM117.327 39.0901C117.135 39.3637 116.978 39.6797 116.978 39.7926C116.978 39.9052 116.575 40.4346 116.083 40.9689C115.329 41.7866 115.187 42.0915 115.188 42.8967C115.189 43.9493 115.789 45.1353 116.518 45.5254C117.194 45.8874 117.085 46.3729 116.083 47.4606C115.398 48.2027 115.187 48.6144 115.187 49.2045C115.187 50.0452 115.661 50.6805 116.288 50.6805C116.755 50.6805 117.426 50.0034 117.426 49.5315C117.426 49.35 117.776 48.8615 118.205 48.446C119.211 47.4712 119.559 46.4571 119.23 45.4599C119.095 45.0509 118.634 44.3762 118.205 43.9609C117.776 43.5455 117.426 43.094 117.426 42.9576C117.426 42.8213 117.776 42.3698 118.205 41.9543C119.26 40.932 119.602 39.8799 119.12 39.1436C118.663 38.4463 117.796 38.4204 117.327 39.0901Z" fill="#A6A6A6"/>
</svg>
