<svg width="33" height="34" viewBox="0 0 33 34" fill="none" xmlns="http://www.w3.org/2000/svg">
<g clip-path="url(#clip0_62_278)">
<path d="M16.263 3.68643C20.6015 3.68643 21.1153 3.70546 22.8215 3.78157C24.4072 3.85134 25.2635 4.11774 25.8343 4.33974C26.5891 4.63151 27.1346 4.98671 27.6991 5.55122C28.27 6.12207 28.6188 6.66121 28.9106 7.41601C29.1326 7.98686 29.399 8.84949 29.4688 10.4288C29.5449 12.1414 29.5639 12.6552 29.5639 16.9873C29.5639 21.3258 29.5449 21.8396 29.4688 23.5458C29.399 25.1315 29.1326 25.9878 28.9106 26.5586C28.6188 27.3134 28.2636 27.8589 27.6991 28.4234C27.1283 28.9943 26.5891 29.3431 25.8343 29.6349C25.2635 29.8569 24.4009 30.1233 22.8215 30.1931C21.1089 30.2692 20.5952 30.2882 16.263 30.2882C11.9245 30.2882 11.4108 30.2692 9.70454 30.1931C8.11883 30.1233 7.26255 29.8569 6.6917 29.6349C5.9369 29.3431 5.39142 28.9879 4.82691 28.4234C4.25605 27.8526 3.9072 27.3134 3.61543 26.5586C3.39343 25.9878 3.12703 25.1252 3.05726 23.5458C2.98115 21.8332 2.96212 21.3195 2.96212 16.9873C2.96212 12.6488 2.98115 12.1351 3.05726 10.4288C3.12703 8.84314 3.39343 7.98686 3.61543 7.41601C3.9072 6.66121 4.2624 6.11573 4.82691 5.55122C5.39776 4.98037 5.9369 4.63151 6.6917 4.33974C7.26255 4.11774 8.12517 3.85134 9.70454 3.78157C11.4108 3.70546 11.9245 3.68643 16.263 3.68643ZM16.263 0.76239C11.8548 0.76239 11.3029 0.781419 9.57134 0.857532C7.84609 0.933646 6.65998 1.21273 5.63244 1.61233C4.56051 2.03095 3.65348 2.58278 2.7528 3.4898C1.84578 4.39048 1.29395 5.29751 0.875329 6.3631C0.475731 7.39698 0.196647 8.57675 0.120533 10.302C0.0444191 12.0399 0.0253906 12.5918 0.0253906 17C0.0253906 21.4083 0.0444191 21.9601 0.120533 23.6917C0.196647 25.4169 0.475731 26.603 0.875329 27.6306C1.29395 28.7025 1.84578 29.6095 2.7528 30.5102C3.65348 31.4109 4.56051 31.9691 5.6261 32.3814C6.65998 32.781 7.83975 33.06 9.56499 33.1362C11.2966 33.2123 11.8484 33.2313 16.2567 33.2313C20.6649 33.2313 21.2168 33.2123 22.9483 33.1362C24.6736 33.06 25.8597 32.781 26.8872 32.3814C27.9528 31.9691 28.8599 31.4109 29.7605 30.5102C30.6612 29.6095 31.2194 28.7025 31.6317 27.6369C32.0313 26.603 32.3104 25.4233 32.3865 23.698C32.4626 21.9664 32.4816 21.4146 32.4816 17.0064C32.4816 12.5981 32.4626 12.0463 32.3865 10.3147C32.3104 8.58943 32.0313 7.40332 31.6317 6.37579C31.2321 5.29751 30.6802 4.39048 29.7732 3.4898C28.8725 2.58912 27.9655 2.03095 26.8999 1.61867C25.866 1.21907 24.6863 0.939989 22.961 0.863875C21.2231 0.781419 20.6713 0.76239 16.263 0.76239Z" fill="#F6FAF9"/>
<path d="M16.2627 8.65918C11.6578 8.65918 7.92188 12.3951 7.92188 17C7.92188 21.6049 11.6578 25.3408 16.2627 25.3408C20.8676 25.3408 24.6035 21.6049 24.6035 17C24.6035 12.3951 20.8676 8.65918 16.2627 8.65918ZM16.2627 22.4104C13.2752 22.4104 10.8523 19.9875 10.8523 17C10.8523 14.0125 13.2752 11.5896 16.2627 11.5896C19.2502 11.5896 21.6731 14.0125 21.6731 17C21.6731 19.9875 19.2502 22.4104 16.2627 22.4104Z" fill="#F6FAF9"/>
<path d="M26.8808 8.32921C26.8808 9.40749 26.0055 10.2765 24.9336 10.2765C23.8553 10.2765 22.9863 9.40114 22.9863 8.32921C22.9863 7.25093 23.8616 6.38196 24.9336 6.38196C26.0055 6.38196 26.8808 7.25727 26.8808 8.32921Z" fill="#F6FAF9"/>
</g>
<defs>
<clipPath id="clip0_62_278">
<rect width="32.4752" height="32.4752" fill="white" transform="translate(0.0253906 0.76239)"/>
</clipPath>
</defs>
</svg>
