<svg width="297" height="50" viewBox="0 0 297 50" fill="none" xmlns="http://www.w3.org/2000/svg">
<path d="M136.247 0.96936C137.011 0.96936 137.636 1.21293 138.123 1.69936C138.609 2.1858 138.853 2.82826 138.853 3.62745V36.8779C138.853 37.6425 138.609 38.285 138.123 38.8067C137.636 39.2932 137.011 39.536 136.247 39.536C135.517 39.536 134.891 39.2932 134.37 38.8067C133.884 38.285 133.641 37.6425 133.641 36.8779V33.1255L134.735 33.1778C134.735 33.8033 134.475 34.5157 133.954 35.3148C133.467 36.0787 132.79 36.8257 131.921 37.5557C131.052 38.285 130.028 38.8936 128.846 39.38C127.665 39.8311 126.397 40.0571 125.041 40.0571C122.644 40.0571 120.49 39.4492 118.579 38.2334C116.668 36.9824 115.156 35.2972 114.045 33.1778C112.933 31.0238 112.377 28.557 112.377 25.7775C112.377 22.9973 112.933 20.5481 114.045 18.4287C115.156 16.2747 116.65 14.5895 118.527 13.3731C120.438 12.1227 122.557 11.4972 124.885 11.4972C126.344 11.4972 127.699 11.7401 128.95 12.2265C130.236 12.713 131.348 13.3385 132.285 14.1031C133.224 14.8677 133.954 15.6838 134.475 16.5522C134.996 17.3867 135.256 18.1852 135.256 18.9498L133.641 19.1065V3.62745C133.641 2.86285 133.884 2.23804 134.37 1.75161C134.891 1.22988 135.517 0.96936 136.247 0.96936ZM125.615 35.2626C127.283 35.2626 128.724 34.8453 129.941 34.0116C131.191 33.1778 132.164 32.0489 132.859 30.6242C133.554 29.1995 133.901 27.5841 133.901 25.7775C133.901 23.9701 133.554 22.3548 132.859 20.9301C132.164 19.5061 131.191 18.3765 129.941 17.5427C128.69 16.7089 127.248 16.2917 125.615 16.2917C124.017 16.2917 122.592 16.7089 121.341 17.5427C120.125 18.3765 119.152 19.5061 118.422 20.9301C117.728 22.3548 117.38 23.9701 117.38 25.7775C117.38 27.5841 117.728 29.1995 118.422 30.6242C119.152 32.0489 120.125 33.1778 121.341 34.0116C122.592 34.8453 124.017 35.2626 125.615 35.2626Z" fill="#CECECE"/>
<path d="M164.24 40.0571C161.356 40.0571 158.855 39.4669 156.735 38.285C154.616 37.0693 152.965 35.4186 151.784 33.3338C150.638 31.2144 150.064 28.7999 150.064 26.0896C150.064 23.0326 150.672 20.4267 151.889 18.272C153.139 16.0834 154.755 14.4159 156.735 13.2693C158.716 12.0882 160.818 11.4973 163.041 11.4973C164.744 11.4973 166.36 11.8446 167.888 12.5393C169.417 13.1994 170.772 14.1377 171.953 15.3541C173.17 16.5353 174.125 17.9423 174.82 19.5753C175.515 21.1737 175.88 22.9281 175.915 24.8392C175.88 25.534 175.602 26.1072 175.081 26.559C174.559 27.0109 173.951 27.2368 173.257 27.2368H152.983L151.732 22.8067H171.328L170.338 23.7449V22.4417C170.269 21.2259 169.869 20.1662 169.139 19.2625C168.41 18.3243 167.506 17.6119 166.43 17.1255C165.352 16.6045 164.223 16.3439 163.041 16.3439C161.999 16.3439 160.992 16.5176 160.019 16.865C159.081 17.1777 158.229 17.6988 157.465 18.4288C156.735 19.1581 156.145 20.1309 155.693 21.3474C155.276 22.5285 155.068 24.0054 155.068 25.7775C155.068 27.6879 155.467 29.3562 156.267 30.7802C157.066 32.2049 158.143 33.3169 159.497 34.1161C160.853 34.88 162.347 35.2626 163.98 35.2626C165.265 35.2626 166.325 35.1412 167.159 34.8976C167.993 34.6195 168.687 34.2898 169.244 33.9071C169.799 33.5252 170.286 33.1601 170.703 32.8128C171.224 32.5 171.745 32.344 172.266 32.344C172.892 32.344 173.413 32.5699 173.83 33.0218C174.247 33.4383 174.455 33.9424 174.455 34.5326C174.455 35.2972 174.073 35.9919 173.309 36.6174C172.371 37.5211 171.067 38.3203 169.4 39.015C167.767 39.7097 166.047 40.0571 164.24 40.0571Z" fill="#CECECE"/>
<path d="M185.426 35.2626C185.113 34.7762 184.974 34.2199 185.009 33.595C185.044 32.9342 185.409 32.3786 186.104 31.9268C186.59 31.614 187.093 31.4926 187.615 31.5625C188.171 31.5971 188.692 31.8576 189.178 32.344C190.151 33.4207 191.228 34.2721 192.41 34.8976C193.625 35.5231 195.085 35.8359 196.787 35.8359C197.482 35.8013 198.195 35.6968 198.924 35.5231C199.654 35.3149 200.279 34.9668 200.8 34.4804C201.321 33.9593 201.582 33.2124 201.582 32.2395C201.582 31.3712 201.304 30.6765 200.748 30.1547C200.193 29.6337 199.462 29.2172 198.56 28.9044C197.656 28.557 196.683 28.2443 195.641 27.9661C194.529 27.6534 193.4 27.306 192.254 26.924C191.142 26.5414 190.134 26.055 189.23 25.4648C188.327 24.8392 187.58 24.0401 186.99 23.0672C186.433 22.0943 186.156 20.8955 186.156 19.4708C186.156 17.8378 186.607 16.4308 187.511 15.2496C188.449 14.0685 189.648 13.1479 191.107 12.4871C192.601 11.827 194.216 11.4973 195.954 11.4973C196.961 11.4973 198.021 11.6363 199.133 11.9138C200.245 12.1574 201.321 12.557 202.364 13.1126C203.406 13.6689 204.31 14.3982 205.074 15.3019C205.421 15.7537 205.612 16.2917 205.647 16.9172C205.717 17.5427 205.439 18.0984 204.813 18.5848C204.397 18.9328 203.893 19.0889 203.302 19.0543C202.712 19.0197 202.225 18.8284 201.842 18.481C201.182 17.6472 200.332 17.0041 199.289 16.5522C198.247 16.0658 197.066 15.8229 195.745 15.8229C195.085 15.8229 194.39 15.9274 193.661 16.1357C192.965 16.3093 192.375 16.6391 191.889 17.1255C191.402 17.6119 191.159 18.3243 191.159 19.2625C191.159 20.1309 191.437 20.8263 191.992 21.3474C192.583 21.8684 193.348 22.3026 194.286 22.6499C195.224 22.9973 196.249 23.31 197.361 23.5882C198.437 23.8664 199.498 24.1961 200.54 24.5787C201.617 24.9607 202.572 25.4648 203.406 26.0896C204.275 26.6805 204.97 27.462 205.491 28.4349C206.047 29.3732 206.325 30.572 206.325 32.0313C206.325 33.7334 205.821 35.1927 204.813 36.4092C203.84 37.5903 202.589 38.494 201.061 39.1188C199.567 39.7443 197.986 40.0571 196.318 40.0571C194.338 40.0571 192.357 39.7097 190.377 39.015C188.431 38.285 186.781 37.0347 185.426 35.2626Z" fill="#CECECE"/>
<path d="M222.568 36.8779C222.568 37.6425 222.325 38.285 221.838 38.8067C221.352 39.2932 220.726 39.536 219.962 39.536C219.233 39.536 218.607 39.2932 218.086 38.8067C217.6 38.285 217.356 37.6425 217.356 36.8779V14.5718C217.356 13.808 217.6 13.1824 218.086 12.696C218.607 12.175 219.233 11.9138 219.962 11.9138C220.726 11.9138 221.352 12.175 221.838 12.696C222.325 13.1824 222.568 13.808 222.568 14.5718V36.8779ZM219.91 8.47413C218.902 8.47413 218.173 8.30045 217.721 7.9531C217.269 7.57115 217.044 6.94563 217.044 6.07725V5.24347C217.044 4.37438 217.287 3.76652 217.773 3.41917C218.26 3.07181 218.989 2.89813 219.962 2.89813C221.005 2.89813 221.752 3.08876 222.203 3.47141C222.655 3.81876 222.88 4.40898 222.88 5.24347V6.07725C222.88 6.98023 222.638 7.60574 222.151 7.9531C221.699 8.30045 220.952 8.47413 219.91 8.47413Z" fill="#CECECE"/>
<path d="M246.297 11.4973C247.79 11.4973 249.163 11.7401 250.414 12.2265C251.664 12.713 252.742 13.3385 253.645 14.1031C254.583 14.8324 255.313 15.597 255.834 16.3962C256.355 17.1954 256.615 17.8901 256.615 18.481L255.417 18.5333V14.3636C255.417 13.6343 255.66 13.0088 256.147 12.4871C256.633 11.966 257.259 11.7055 258.023 11.7055C258.787 11.7055 259.413 11.966 259.899 12.4871C260.385 12.9735 260.628 13.599 260.628 14.3636V37.3474C260.628 40.3006 260.003 42.6975 258.753 44.5395C257.501 46.4153 255.834 47.7878 253.749 48.6561C251.699 49.5252 249.441 49.9594 246.974 49.9594C246.105 49.9594 245.08 49.838 243.899 49.5944C242.718 49.3862 241.624 49.1257 240.615 48.8129C239.643 48.5001 238.965 48.1874 238.583 47.8746C237.784 47.4581 237.246 46.9716 236.967 46.4153C236.725 45.8597 236.725 45.3033 236.967 44.7477C237.315 43.9831 237.784 43.5144 238.375 43.3407C238.965 43.167 239.642 43.2192 240.407 43.4967C240.754 43.6012 241.293 43.7925 242.023 44.07C242.752 44.3481 243.569 44.5917 244.472 44.8C245.376 45.0428 246.227 45.165 247.026 45.165C249.805 45.165 251.89 44.5218 253.28 43.2362C254.704 41.9506 255.417 40.1962 255.417 37.9723V33.2823L255.99 33.6466C255.886 34.3766 255.556 35.1235 255 35.8881C254.478 36.6174 253.784 37.2952 252.915 37.9207C252.047 38.5455 251.039 39.0673 249.892 39.4838C248.781 39.8664 247.634 40.0571 246.453 40.0571C243.986 40.0571 241.78 39.4492 239.834 38.2335C237.888 36.9824 236.342 35.2972 235.195 33.1778C234.049 31.0238 233.476 28.557 233.476 25.7775C233.476 22.9973 234.049 20.5482 235.195 18.4288C236.342 16.2748 237.871 14.5895 239.782 13.3731C241.727 12.1228 243.899 11.4973 246.297 11.4973ZM247.078 16.2917C245.376 16.2917 243.881 16.7089 242.596 17.5427C241.311 18.3765 240.303 19.5061 239.573 20.9301C238.844 22.3548 238.479 23.9701 238.479 25.7775C238.479 27.5842 238.844 29.1995 239.573 30.6242C240.303 32.0489 241.311 33.1778 242.596 34.0116C243.881 34.8454 245.376 35.2626 247.078 35.2626C248.781 35.2626 250.275 34.863 251.56 34.0638C252.845 33.23 253.854 32.1004 254.583 30.6764C255.313 29.2171 255.677 27.5842 255.677 25.7775C255.677 23.9701 255.313 22.3548 254.583 20.9301C253.854 19.4708 252.845 18.3419 251.56 17.5427C250.275 16.7089 248.781 16.2917 247.078 16.2917Z" fill="#CECECE"/>
<path d="M287.4 11.4973C289.867 11.4973 291.778 12.0183 293.133 13.061C294.488 14.0685 295.426 15.441 295.947 17.1777C296.504 18.8806 296.781 20.791 296.781 22.9105V36.8779C296.781 37.6425 296.52 38.285 295.999 38.8068C295.513 39.2932 294.905 39.536 294.175 39.536C293.411 39.536 292.786 39.2932 292.299 38.8068C291.813 38.285 291.569 37.6425 291.569 36.8779V22.9627C291.569 21.7124 291.396 20.6004 291.048 19.6275C290.701 18.6201 290.093 17.8209 289.224 17.23C288.39 16.6045 287.209 16.2917 285.681 16.2917C284.256 16.2917 283.005 16.6045 281.928 17.23C280.851 17.8209 279.999 18.6201 279.374 19.6275C278.784 20.6004 278.489 21.7124 278.489 22.9627V36.8779C278.489 37.6425 278.227 38.285 277.706 38.8068C277.22 39.2932 276.612 39.536 275.883 39.536C275.118 39.536 274.493 39.2932 274.006 38.8068C273.52 38.285 273.277 37.6425 273.277 36.8779V14.7809C273.277 14.0163 273.52 13.3907 274.006 12.9043C274.493 12.3833 275.118 12.1228 275.883 12.1228C276.612 12.1228 277.22 12.3833 277.706 12.9043C278.227 13.3907 278.489 14.0163 278.489 14.7809V17.6988L277.55 18.2205C277.793 17.4559 278.21 16.6913 278.801 15.9274C279.426 15.1282 280.173 14.3982 281.042 13.7381C281.911 13.0434 282.883 12.5047 283.961 12.1228C285.037 11.7055 286.184 11.4973 287.4 11.4973Z" fill="#CECECE"/>
<path fill-rule="evenodd" clip-rule="evenodd" d="M25.7415 12.2477C24.4212 11.2049 22.5624 10.6839 20.165 10.6839C18.9836 10.6839 17.8718 10.8922 16.8295 11.3094C15.7872 11.6914 14.8317 12.2124 13.9631 12.8732C13.1292 13.5333 12.4169 14.2626 11.8263 15.0618C11.7352 15.1924 11.6484 15.323 11.5657 15.4529V2.65809C11.5657 1.89349 11.3051 1.26797 10.7839 0.781538C10.2975 0.26051 9.6895 0 8.95985 0C8.19546 0 7.57009 0.26051 7.08366 0.781538C6.59722 1.26797 6.354 1.89349 6.354 2.65809V21.18H11.6208C11.7271 20.3166 11.9866 19.5103 12.3996 18.7619C12.9902 17.7545 13.8068 16.9553 14.8491 16.3644C15.9262 15.7742 17.1422 15.4791 18.4973 15.4791C19.9565 15.4791 21.0858 15.7742 21.8849 16.3644C22.7187 16.9553 23.292 17.7545 23.6047 18.7619C23.8628 19.5103 24.025 20.3166 24.0914 21.18H29.3192C29.2489 19.4489 28.977 17.8442 28.5037 16.3644C27.9825 14.6276 27.0618 13.2552 25.7415 12.2477ZM29.3376 28.24H24.1259V35.9086C24.1259 36.6732 24.3691 37.3156 24.8555 37.8367C25.3419 38.3231 25.9673 38.5667 26.7317 38.5667C27.4614 38.5667 28.0694 38.3231 28.5558 37.8367C29.077 37.3156 29.3376 36.6732 29.3376 35.9086V28.24ZM11.5657 28.24H6.354V35.9086C6.354 36.6732 6.59722 37.3156 7.08366 37.8367C7.57009 38.3231 8.19546 38.5667 8.95985 38.5667C9.6895 38.5667 10.2975 38.3231 10.7839 37.8367C11.3051 37.3156 11.5657 36.6732 11.5657 35.9086V28.24ZM36.2732 28.24H41.4848V35.9086C41.4848 36.6732 41.2417 37.3156 40.7553 37.8367C40.2688 38.3231 39.6434 38.5667 38.879 38.5667C38.1494 38.5667 37.524 38.3231 37.0028 37.8367C36.5164 37.3156 36.2732 36.6732 36.2732 35.9086V28.24ZM41.4848 21.18H36.2732V13.6025C36.2732 12.8379 36.5164 12.2124 37.0028 11.7259C37.524 11.2049 38.1494 10.9444 38.879 10.9444C39.6434 10.9444 40.2688 11.2049 40.7553 11.7259C41.2417 12.2124 41.4848 12.8379 41.4848 13.6025V21.18ZM47.4001 28.24C47.6734 29.6633 48.1252 30.9863 48.7557 32.2084C49.8676 34.3278 51.3792 36.0131 53.2903 37.2634C55.2014 38.4798 57.3554 39.0877 59.753 39.0877C61.1078 39.0877 62.3758 38.8618 63.5569 38.4099C64.7388 37.9235 65.7632 37.3156 66.6323 36.5863C67.3284 36.0018 67.9017 35.4059 68.3521 34.7987V35.9086C68.3521 36.6732 68.595 37.3156 69.0814 37.8367C69.6024 38.3231 70.2279 38.5667 70.9579 38.5667C71.7225 38.5667 72.3474 38.3231 72.8338 37.8367C73.3202 37.3156 73.5638 36.6732 73.5638 35.9086V28.24H68.1269C67.9765 28.7307 67.7908 29.2023 67.5706 29.6548C66.8751 31.0788 65.9023 32.2084 64.6519 33.0422C63.4355 33.876 61.9939 34.2932 60.3263 34.2932C58.7279 34.2932 57.3032 33.876 56.0522 33.0422C54.8364 32.2084 53.8636 31.0788 53.1336 29.6548C52.9133 29.2023 52.7276 28.7307 52.5772 28.24H47.4001ZM52.6394 21.18H47.4418C47.7178 19.8435 48.1556 18.6031 48.7557 17.4594C49.8676 15.3047 51.3615 13.6202 53.238 12.4037C55.1492 11.1527 57.2686 10.5279 59.5963 10.5279C61.0556 10.5279 62.4104 10.7707 63.6614 11.2572C64.9471 11.7436 66.059 12.3691 66.9966 13.1337C67.5112 13.5524 67.9631 13.9873 68.3521 14.4377V2.65809C68.3521 1.89349 68.595 1.26797 69.0814 0.781538C69.6024 0.26051 70.2279 0 70.9579 0C71.7225 0 72.3474 0.242867 72.8338 0.729301C73.3202 1.21574 73.5638 1.8589 73.5638 2.65809V21.18H68.0648C67.9264 20.7592 67.7612 20.3526 67.5706 19.9607C66.8751 18.536 65.9023 17.4071 64.6519 16.5734C63.4009 15.7396 61.9593 15.3223 60.3263 15.3223C58.7279 15.3223 57.3032 15.7396 56.0522 16.5734C54.8364 17.4071 53.8636 18.536 53.1336 19.9607C52.9429 20.3526 52.7777 20.7592 52.6394 21.18ZM79.7349 28.24C80.0103 29.7205 80.4911 31.0958 81.1773 32.3645C82.3591 34.4493 84.0091 36.0999 86.1285 37.3156C88.2479 38.4968 90.7499 39.0877 93.6333 39.0877C95.4406 39.0877 97.1604 38.7403 98.7934 38.0456C100.461 37.3502 101.764 36.551 102.702 35.6481C103.466 35.0226 103.848 34.3278 103.848 33.5632C103.848 32.9723 103.64 32.4689 103.223 32.0517C102.806 31.6006 102.285 31.3746 101.66 31.3746C101.139 31.3746 100.617 31.5307 100.096 31.8434C99.6794 32.1908 99.193 32.5558 98.6367 32.9377C98.0811 33.3204 97.3856 33.6501 96.5519 33.9282C95.7181 34.1711 94.6584 34.2932 93.3727 34.2932C91.7398 34.2932 90.2459 33.9106 88.8911 33.1467C87.5355 32.3475 86.4589 31.2356 85.6597 29.8109C85.3822 29.3167 85.1535 28.7928 84.972 28.24H79.7349ZM105.02 21.18C104.837 20.2813 104.568 19.4228 104.213 18.6059C103.519 16.9729 102.563 15.5659 101.347 14.384C100.166 13.1683 98.8103 12.23 97.2819 11.5699C95.7527 10.8752 94.1373 10.5279 92.4352 10.5279C90.2113 10.5279 88.1095 11.1181 86.1285 12.2999C84.1481 13.4465 82.5328 15.114 81.2818 17.3026C80.6266 18.464 80.1472 19.7567 79.8451 21.18H84.8464C84.917 20.899 84.9968 20.6314 85.0864 20.378C85.5383 19.1615 86.1285 18.1887 86.8585 17.4594C87.6231 16.7294 88.4738 16.2083 89.4121 15.8956C90.3849 15.5482 91.3924 15.3746 92.4352 15.3746C93.6163 15.3746 94.7452 15.6351 95.8226 16.1561C96.8992 16.6425 97.8029 17.3549 98.5329 18.2932C99.2029 19.1234 99.5947 20.0857 99.7077 21.18H105.02ZM36.638 6.98375C37.0897 7.3311 37.8193 7.50478 38.8269 7.50478C39.8692 7.50478 40.6163 7.3311 41.068 6.98375C41.5544 6.6364 41.7976 6.01088 41.7976 5.1072V4.27341C41.7976 3.43963 41.5718 2.84871 41.1201 2.50136C40.6684 2.11941 39.9213 1.92809 38.879 1.92809C37.9062 1.92809 37.1766 2.10176 36.6901 2.44982C36.2037 2.79717 35.9605 3.40503 35.9605 4.27341V5.1072C35.9605 5.97629 36.1863 6.60181 36.638 6.98375Z" fill="#F0F0F0" fill-opacity="0.13"/>
<path d="M0 24.357H110.136" stroke="#CECECE" stroke-opacity="0.13" stroke-width="5"/>
</svg>
