<svg width="197" height="50" viewBox="0 0 197 50" fill="none" xmlns="http://www.w3.org/2000/svg">
<path fill-rule="evenodd" clip-rule="evenodd" d="M121.228 0.315566C116.784 0.835566 112.713 2.92089 110.158 5.9855C109.124 7.22597 107.918 9.70671 107.406 11.6475C106.859 13.7173 106.806 18.0305 107.3 20.1958C108.67 26.204 112.841 30.1401 119.356 31.5729C121.471 32.0383 126.333 32.0462 128.873 31.5885C130.515 31.2926 133.439 30.5666 133.548 30.4279C133.571 30.3981 133.492 29.5462 133.372 28.5343L133.154 26.695L132.432 27.1864C132.034 27.4567 131.059 28.162 130.263 28.7533C127.158 31.0626 126.1 31.3656 123.182 30.7791C118.177 29.7734 114.494 26.1902 112.83 20.7077C112.343 19.1059 112.294 18.6555 112.298 15.8856C112.303 13.2426 112.372 12.5716 112.811 10.9135C114.382 4.97526 118.285 1.57674 124.003 1.16831C126.329 1.00214 127.142 1.31122 130.416 3.60568C132.495 5.06298 133.139 5.42627 133.272 5.21634C133.366 5.06751 133.445 4.3983 133.447 3.72967C133.448 3.06084 133.501 2.37921 133.564 2.21481C133.652 1.98655 133.367 1.81959 132.356 1.50735C128.893 0.437587 124.346 -0.049301 121.228 0.315566ZM176.816 1.02933C175.229 1.33388 173.183 2.00409 171.932 2.62876C167.859 4.66283 164.347 8.96377 163.119 13.4216C162.608 15.2737 162.505 19.0229 162.908 21.0237C164.055 26.7047 167.953 31.4259 173.268 33.5682C175.379 34.4193 176.987 34.7105 179.575 34.7105C182.164 34.7105 183.772 34.4193 185.883 33.5682C196.646 29.229 200.008 15.5166 192.452 6.77043C190.253 4.22444 187.425 2.39695 184.259 1.4764C183.181 1.16279 182.148 1.04491 180.068 0.997597C178.55 0.962904 177.087 0.977295 176.816 1.02933ZM0 16.1813V31.2609H2.66111H5.32221V16.1813V1.10168H2.66111H0V16.1813ZM13.7983 1.19748C13.7983 1.25642 13.2697 5.81834 12.6233 11.3353C11.2403 23.1414 10.8477 25.3241 9.34719 29.5479C9.08502 30.2861 8.87036 30.9735 8.87036 31.0756C8.87036 31.1775 9.57998 31.2609 10.4473 31.2609H12.0243L12.0239 27.3678C12.0235 23.96 12.1607 22.2336 13.1242 13.5202C13.7295 8.0452 14.2694 3.43261 14.3239 3.26999C14.4498 2.89467 14.4129 2.79375 19.816 18.3003L24.332 31.2609H26.043H27.754L28.1372 30.0289C28.3477 29.3514 30.1525 23.8398 32.1477 17.7809C35.1414 8.68997 35.801 6.86425 35.922 7.33359C36.0434 7.80471 39.2267 30.7287 39.2267 31.1324C39.2267 31.2029 40.4242 31.2609 41.8878 31.2609C43.3514 31.2609 44.5489 31.2221 44.5489 31.1746C44.5489 31.0346 40.6256 2.64965 40.4946 1.84087L40.3747 1.10168H38.564H36.753L32.5321 13.9144C30.2107 20.9614 28.2613 26.726 28.2004 26.7244C28.1393 26.7228 26.0814 20.9794 23.6271 13.9609L19.1647 1.20024L16.4815 1.14544C15.0057 1.11528 13.7983 1.13874 13.7983 1.19748ZM49.0826 16.1813V31.2609H51.7437H54.4048V24.7771V18.2932L58.8893 18.1968C63.8291 18.0908 64.6663 17.9453 67.1401 16.764C69.0608 15.8468 70.405 14.5913 71.2031 12.9684C71.8154 11.724 71.8499 11.5377 71.8499 9.48239C71.8499 7.53899 71.7943 7.19246 71.3216 6.1838C70.2313 3.8578 68.1164 2.25522 65.1289 1.49099C63.7479 1.13795 62.931 1.10168 56.3445 1.10168H49.0826V16.1813ZM80.7762 15.8371C77.5545 23.9407 74.8619 30.7263 74.7923 30.9159C74.676 31.2337 74.8755 31.2609 77.3154 31.2609H79.9649L82.584 24.6574L85.2033 18.0539H91.5614H97.9197L98.3661 19.0888C99.5325 21.7925 100.436 25.1599 100.918 28.5998C101.326 31.5148 101.156 31.2609 102.695 31.2609H104.04L98.0084 16.1813L91.9769 1.10168L89.3054 1.10247L86.6338 1.10325L80.7762 15.8371ZM135.618 2.77719C135.618 3.69872 135.7 4.4527 135.8 4.4527C135.9 4.4527 136.632 4.10538 137.426 3.68118C139.594 2.52271 141.28 2.06638 143.848 1.9422L146.065 1.83516V16.5481V31.2609H148.611H151.157L151.296 29.7776C151.372 28.9617 151.399 22.3411 151.356 15.065L151.277 1.83575L153.451 1.94751C155.957 2.07643 157.649 2.53414 159.871 3.68394C160.688 4.10676 161.419 4.4527 161.497 4.4527C161.574 4.4527 161.638 3.69872 161.638 2.77719V1.10168H148.628H135.618V2.77719ZM61.5145 2.20732C63.7217 2.86116 65.2592 4.17319 66.1961 6.20213C66.6513 7.18753 66.7092 7.56324 66.7165 9.5778C66.7242 11.6678 66.6806 11.9403 66.1583 13.0711C65.7964 13.8547 65.2117 14.657 64.5401 15.2923C62.7459 16.9891 61.1134 17.4626 57.0563 17.4626H54.4048V9.67636V1.89015H57.4243C59.6246 1.89015 60.7345 1.9763 61.5145 2.20732ZM94.599 9.62826C96.2351 13.7214 97.5739 17.1144 97.5739 17.1681C97.5739 17.2217 94.861 17.2654 91.5454 17.2654C88.1221 17.2654 85.5451 17.1899 85.5826 17.0906C86.0184 15.9313 91.5701 2.13912 91.5929 2.15883C91.6099 2.17361 92.9627 5.53489 94.599 9.62826ZM191.495 8.24724C191.135 11.1238 191.204 10.9009 190.817 10.4225C190.467 9.99037 190.466 9.99155 189.436 11.6779C186.948 15.7476 183.1 18.6733 178.688 19.8471C176.455 20.4414 172.196 20.5802 169.587 20.144C166.289 19.5926 166.378 19.5106 170.181 19.5962L173.859 19.679V17.1939V14.7086L175.036 14.1143C176.889 13.1792 176.816 13.0855 176.816 16.3995C176.816 18.9441 176.852 19.2648 177.128 19.1592C177.299 19.0933 177.565 19.0395 177.719 19.0395C177.95 19.0395 177.998 18.4097 177.998 15.3948V11.75L179.307 11.1567C180.027 10.8303 180.736 10.5634 180.884 10.5634C181.101 10.5634 181.152 11.2657 181.152 14.217C181.152 17.7718 181.163 17.8651 181.535 17.666C181.783 17.5329 181.938 17.2089 181.978 16.7399C182.038 16.036 182.073 16.007 183.408 15.558C184.414 15.2195 184.814 15.1588 184.919 15.3287C185.107 15.6331 187.532 13.2955 188.954 11.4394C189.542 10.6716 190.023 9.98307 190.023 9.90915C190.023 9.83523 189.801 9.77492 189.53 9.77492C189.259 9.77492 189.041 9.70849 189.046 9.62708C189.054 9.49717 191.365 7.60661 191.516 7.60661C191.548 7.60661 191.539 7.89479 191.495 8.24724ZM185.235 22.5323C185.458 22.6178 185.765 22.4191 186.214 21.8991C186.969 21.0257 187.119 21.0552 188.66 22.3844L189.53 23.135L188.032 24.6099C185.586 27.0187 182.893 28.107 179.378 28.107C175.877 28.107 173.213 27.0337 170.74 24.6276L169.227 23.155L170.097 22.3945C171.602 21.0793 171.739 21.0517 172.525 21.909C173.357 22.8165 173.859 22.7461 173.859 21.7223V21.0418L175.338 20.977L176.817 20.9121L176.816 22.7418C176.816 24.4585 176.843 24.5819 177.259 24.7392C177.503 24.8315 177.769 24.8675 177.851 24.8198C177.932 24.7719 177.998 23.8261 177.998 22.7181V20.7038L179.329 20.3466C180.061 20.1501 180.771 19.9457 180.906 19.8922C181.095 19.8177 181.152 20.3736 181.152 22.29C181.152 24.5598 181.184 24.7788 181.497 24.7189C181.799 24.6611 181.855 24.3255 181.941 22.0357L182.039 19.4186L183.419 18.6719L184.799 17.9252L184.855 20.1664C184.901 22.0324 184.965 22.4286 185.235 22.5323ZM154.026 38.659C153.846 38.9334 153.761 39.2192 153.835 39.2939C153.91 39.3688 154.052 39.2994 154.151 39.1399C154.306 38.8898 154.501 38.9109 155.569 39.2935C156.251 39.5375 156.913 39.737 157.041 39.737C157.413 39.737 157.892 39.1533 157.892 38.6996C157.892 38.3107 157.875 38.3057 157.639 38.6288C157.398 38.9584 157.333 38.9554 156.35 38.5679C154.97 38.0238 154.429 38.0451 154.026 38.659ZM22.2764 41.1791C21.334 41.4791 20.0523 42.8129 19.7572 43.8008C18.762 47.1317 20.829 49.8193 24.3442 49.7649C26.4439 49.7323 26.8953 49.5924 26.969 48.9513C27.0461 48.2829 26.8722 48.274 26.0197 48.903C24.5872 49.96 22.5222 49.2322 21.5782 47.3377C20.5715 45.3178 21.2313 42.4549 22.9023 41.5907C23.8995 41.0751 25.0558 41.1387 25.9501 41.7587C26.9044 42.4198 27.0053 42.4263 27.0053 41.8261C27.0053 41.4723 26.8484 41.2978 26.3846 41.1362C25.6042 40.8641 23.1861 40.8894 22.2764 41.1791ZM30.3849 41.1186C28.7762 41.8046 27.9576 43.1923 27.9446 45.2542C27.9347 46.8487 28.4212 48.0548 29.4322 48.9427C30.6879 50.045 33.1674 50.0988 34.4613 49.0517C35.6028 48.1278 35.9742 47.1962 35.9742 45.2563C35.9742 43.34 35.6797 42.6422 34.4531 41.6506C33.817 41.1364 33.5313 41.0494 32.2847 40.9895C31.4951 40.9517 30.6402 41.0096 30.3849 41.1186ZM46.9384 41.1779C46.1172 41.4906 45.3374 42.3654 45.3374 42.9739C45.3374 43.7371 46.0166 44.3547 47.7359 45.155C50.8697 46.6135 51.5283 47.265 51.0457 48.4296C50.5792 49.5563 48.6452 49.6927 46.7355 48.7337C46.1534 48.4412 45.6559 48.2267 45.6303 48.2569C45.6045 48.287 45.5238 48.5058 45.4509 48.7434C45.337 49.1142 45.4237 49.2068 46.0671 49.4012C46.4789 49.5255 47.5047 49.6755 48.3468 49.7343C50.8863 49.9115 52.5233 49.0052 52.5233 47.4219C52.5233 46.3318 51.7774 45.6305 49.2798 44.3723C46.8201 43.1332 46.3581 42.7133 46.6792 42.0086C46.8012 41.7409 47.1298 41.4646 47.4095 41.3944C48.2545 41.1823 49.9369 41.4123 50.8804 41.869C51.3694 42.1058 51.8303 42.2996 51.9046 42.2996C52.2018 42.2996 52.0177 41.3471 51.6945 41.2132C51.0319 40.9388 47.6326 40.9136 46.9384 41.1779ZM78.6791 41.1186C77.0704 41.8046 76.2517 43.1923 76.2387 45.2542C76.2289 46.8487 76.7154 48.0548 77.7264 48.9427C78.982 50.045 81.4616 50.0988 82.7555 49.0517C83.897 48.1278 84.2684 47.1962 84.2684 45.2563C84.2684 43.34 83.9739 42.6422 82.7472 41.6506C82.1111 41.1364 81.8255 41.0494 80.5789 40.9895C79.7892 40.9517 78.9343 41.0096 78.6791 41.1186ZM110.262 41.2978C109.516 41.7528 109.007 42.4395 109.007 42.9916C109.007 43.2156 109.184 43.7468 109.401 44.1722C109.618 44.5976 109.795 44.9615 109.795 44.981C109.795 45.0005 109.583 45.0697 109.324 45.1347C109.066 45.1996 108.578 45.5672 108.24 45.9514C107.181 47.1578 107.523 48.7274 109.015 49.4983C109.767 49.8877 111.628 49.8721 112.405 49.4702C112.882 49.2236 113.105 49.2009 113.378 49.3716C113.573 49.4934 114.055 49.593 114.449 49.593C115.156 49.593 115.161 49.5872 114.843 49.1494C114.292 48.3915 114.28 48.2447 114.717 47.6306C114.951 47.3026 115.192 46.7229 115.254 46.3425C115.361 45.6801 115.341 45.6506 114.775 45.6506C114.231 45.6506 114.175 45.716 114.075 46.4629C114.015 46.9098 113.889 47.3517 113.796 47.4452C113.637 47.604 110.92 44.3104 110.415 43.3474C109.885 42.3362 110.425 41.2647 111.464 41.2647C112.121 41.2647 112.521 41.6191 112.715 42.3737C112.836 42.8456 112.997 43.0041 113.404 43.0518C113.834 43.1024 113.935 43.0342 113.935 42.694C113.935 41.2111 111.76 40.3844 110.262 41.2978ZM122.509 41.0914C121.108 41.4624 119.872 42.4929 119.418 43.6683C118.902 45.004 119.342 47.3486 120.301 48.3775C121.468 49.6284 123.939 50.1187 126.023 49.5129L127.142 49.1877V47.1116V45.0354L126.403 45.0967L125.663 45.1578L125.565 47.2261L125.466 49.2945L124.875 49.4024C122.483 49.8382 120.79 48.0978 120.79 45.2021C120.79 41.8275 122.974 40.3871 125.821 41.8848L126.907 42.4555L126.999 41.9692C127.073 41.5834 126.985 41.4409 126.575 41.2814C125.893 41.0163 123.259 40.8931 122.509 41.0914ZM137.613 41.1779C136.792 41.4906 136.012 42.3654 136.012 42.9739C136.012 43.7371 136.691 44.3547 138.411 45.155C141.544 46.6135 142.203 47.265 141.72 48.4296C141.254 49.5563 139.32 49.6927 137.41 48.7337C136.828 48.4412 136.331 48.2267 136.305 48.2569C136.279 48.287 136.199 48.5058 136.126 48.7434C136.012 49.1142 136.098 49.2068 136.742 49.4012C137.154 49.5255 138.179 49.6755 139.022 49.7343C141.561 49.9115 143.198 49.0052 143.198 47.4219C143.198 46.3318 142.452 45.6305 139.954 44.3723C137.495 43.1332 137.033 42.7133 137.354 42.0086C137.476 41.7409 137.805 41.4646 138.084 41.3944C138.929 41.1823 140.612 41.4123 141.555 41.869C142.044 42.1058 142.505 42.2996 142.579 42.2996C142.877 42.2996 142.692 41.3471 142.369 41.2132C141.707 40.9388 138.307 40.9136 137.613 41.1779ZM163.243 41.1186C161.634 41.8046 160.816 43.1923 160.803 45.2542C160.793 46.8487 161.279 48.0548 162.29 48.9427C163.546 50.045 166.026 50.0988 167.32 49.0517C168.461 48.1278 168.832 47.1962 168.832 45.2563C168.832 43.34 168.538 42.6422 167.311 41.6506C166.675 41.1364 166.39 41.0494 165.143 40.9895C164.353 40.9517 163.498 41.0096 163.243 41.1186ZM33.2345 41.6183C34.0704 42.1383 34.3973 43.2164 34.3969 45.4535C34.3967 47.0606 34.3186 47.6659 34.048 48.1621C33.5836 49.0125 32.8185 49.4855 31.9079 49.4855C30.4271 49.4855 29.4939 47.8887 29.4939 45.3549C29.4939 42.0559 31.199 40.3526 33.2345 41.6183ZM37.4504 44.6033C37.4493 46.5345 37.3933 48.4473 37.3261 48.8538C37.221 49.4893 37.2559 49.593 37.5746 49.5932C37.9233 49.5932 37.9415 49.4258 37.88 46.7842C37.8441 45.2392 37.8441 43.6277 37.88 43.2031L37.9454 42.4312L40.4001 46.0121L42.8549 49.593H43.6033H44.3518L44.3545 45.7984C44.3559 43.7115 44.4107 41.8042 44.476 41.5604C44.5688 41.214 44.5126 41.1168 44.2193 41.1168C43.8604 41.1168 43.8473 41.2838 43.9226 44.9114C43.9668 47.032 43.9266 48.6338 43.8318 48.5425C43.7383 48.4526 42.5434 46.7673 41.1766 44.7973C38.9302 41.5598 38.6318 41.2095 38.072 41.1537L37.4526 41.0918L37.4504 44.6033ZM53.6491 44.4539C53.7084 47.4576 53.7555 47.8455 54.1214 48.3349C54.9586 49.455 55.489 49.6915 57.1645 49.6915C58.84 49.6915 59.3703 49.4552 60.2076 48.3351C60.5739 47.8451 60.6202 47.4615 60.6764 44.4541L60.7387 41.1168H59.9372H59.1357V44.5763C59.1357 48.5058 59.0021 49.0172 57.8777 49.3882C57.0309 49.6677 56.3467 49.5011 55.7541 48.8709C55.309 48.3978 55.2895 48.2447 55.2304 44.7482L55.1689 41.1168H54.3761H53.5831L53.6491 44.4539ZM61.8954 45.3549V49.593H64.7536H67.6118V49.0791C67.6118 48.6677 67.543 48.5932 67.2669 48.7053C66.5322 49.004 65.8579 49.1577 64.6878 49.2935L63.4723 49.4345V45.2757V41.1168H62.6838H61.8954V45.3549ZM68.2032 41.6096C68.2032 42.1823 68.2428 42.1939 68.9522 41.8275C69.2449 41.6763 69.8393 41.5211 70.2729 41.4825L71.0614 41.4125L71.1146 45.5027L71.168 49.593H71.9524H72.7369V45.4659V41.3388L73.4761 41.4527C73.8828 41.5154 74.4548 41.6873 74.7475 41.8346C75.4585 42.1923 75.4966 42.1809 75.4966 41.6096V41.1168H71.8499H68.2032V41.6096ZM81.5286 41.6183C82.3646 42.1383 82.6914 43.2164 82.691 45.4535C82.6908 47.0606 82.6128 47.6659 82.3421 48.1621C81.8777 49.0125 81.1127 49.4855 80.202 49.4855C78.7213 49.4855 77.7881 47.8887 77.7881 45.3549C77.7881 42.0559 79.4932 40.3526 81.5286 41.6183ZM85.5497 45.3393V49.593H86.3381H87.1266V47.9508C87.1266 46.4251 87.1597 46.2908 87.5936 46.0586C88.4414 45.6048 88.754 45.8532 89.7463 47.7696L90.6905 49.593H91.4729H92.2552L91.2744 47.6383L90.2935 45.6839L91.0755 44.9019C92.095 43.8824 92.1654 42.8479 91.2829 41.8592L90.7081 41.2154L88.129 41.1506L85.5497 41.0855V45.3393ZM93.2373 45.3549V49.593H94.0258H94.8142V45.3549V41.1168H94.0258H93.2373V45.3549ZM98.9425 41.6473C98.8347 41.9518 98.0935 43.842 97.2956 45.8477L95.8444 49.4944L96.4322 49.5575C96.7555 49.5924 97.1225 49.5803 97.2477 49.5309C97.3728 49.4814 97.7848 48.6324 98.1633 47.6442L98.851 45.8477H100.583C102.572 45.8477 102.458 45.7351 103.031 48.2624C103.273 49.3298 103.407 49.593 103.706 49.593C103.911 49.593 104.079 49.5687 104.079 49.5391C104.079 49.5094 103.334 47.6245 102.424 45.3504L100.769 41.2154L99.9535 41.1545C99.2145 41.0993 99.1201 41.1452 98.9425 41.6473ZM128.522 45.3549V49.593H131.774H135.027V49.1002C135.027 48.8291 135.004 48.6083 134.977 48.6095C134.95 48.6107 134.504 48.7402 133.986 48.8975C133.468 49.0546 132.381 49.2435 131.571 49.3168L130.099 49.4502V47.2547V45.0592H132.168C133.417 45.0592 134.238 44.981 134.238 44.8621C134.238 44.7432 133.417 44.665 132.168 44.665H130.099V42.984V41.3029L131.429 41.4263C132.665 41.541 133.871 41.7768 134.546 42.0358C134.748 42.1133 134.829 41.9966 134.829 41.6307V41.1168H131.676H128.522V45.3549ZM143.897 41.6096C143.897 42.1872 143.861 42.1775 144.711 41.8318C145.076 41.6828 145.708 41.5014 146.114 41.4285L146.854 41.296V45.4446V49.593H147.642H148.431V45.4446V41.296L149.17 41.4285C149.576 41.5014 150.208 41.6828 150.574 41.8318C151.423 42.1775 151.387 42.1872 151.387 41.6096V41.1168H147.642H143.897V41.6096ZM155.065 41.2647C154.934 41.476 151.782 49.3805 151.782 49.4966C151.782 49.5496 152.121 49.593 152.537 49.593H153.292L154.033 47.7203L154.774 45.8477H156.515H158.255L158.571 46.7988C158.744 47.322 158.953 48.1426 159.035 48.6222C159.153 49.3198 159.271 49.507 159.625 49.5577L160.066 49.6211L159.69 48.6706C159.483 48.1481 158.719 46.2344 157.991 44.4186L156.669 41.1168H155.912C155.496 41.1168 155.115 41.1833 155.065 41.2647ZM166.093 41.6183C166.929 42.1383 167.255 43.2164 167.255 45.4535C167.255 47.0606 167.177 47.6659 166.906 48.1621C166.442 49.0125 165.677 49.4855 164.766 49.4855C163.285 49.4855 162.352 47.8887 162.352 45.3549C162.352 42.0559 164.057 40.3526 166.093 41.6183ZM89.8088 41.925C90.4699 42.5461 90.601 43.4929 90.153 44.4101C89.8465 45.0373 89.6416 45.1939 88.8802 45.3817C88.3811 45.5051 87.7824 45.7077 87.5496 45.8323C87.1278 46.058 87.1266 46.0521 87.1266 43.6587V41.2588L88.2348 41.3731C88.9951 41.4517 89.4893 41.6248 89.8088 41.925ZM101.424 43.6388C101.827 44.6465 102.112 45.5152 102.057 45.5694C102.003 45.6236 101.291 45.6419 100.474 45.61L98.9894 45.552L99.624 43.9751C99.9729 43.1077 100.322 42.2302 100.399 42.025C100.477 41.8198 100.574 41.6867 100.616 41.7293C100.657 41.7719 101.021 42.6311 101.424 43.6388ZM157.244 43.3352C157.593 44.2292 157.935 45.116 158.004 45.3056C158.119 45.6165 157.972 45.6506 156.512 45.6506C155.053 45.6506 154.906 45.6165 155.021 45.3056C155.655 43.5846 156.432 41.7096 156.512 41.7096C156.567 41.7096 156.896 42.4411 157.244 43.3352ZM111.609 47.1146L112.931 48.7712L112.42 49.1059C110.602 50.2971 108.561 48.9523 109.024 46.8682C109.178 46.1729 109.713 45.4521 110.072 45.4556C110.191 45.4568 110.883 46.2033 111.609 47.1146Z" fill="#F6FAF9"/>
</svg>
