<svg width="34" height="34" viewBox="0 0 34 34" fill="none" xmlns="http://www.w3.org/2000/svg">
<g clip-path="url(#clip0_62_280)">
<path d="M33.0251 17C33.0251 8.03222 25.7552 0.76239 16.7874 0.76239C7.81963 0.76239 0.549805 8.03222 0.549805 17C0.549805 25.1046 6.48764 31.8222 14.2503 33.0404V21.6937H10.1275V17H14.2503V13.4227C14.2503 9.35311 16.6745 7.10521 20.3835 7.10521C22.1595 7.10521 24.0182 7.42235 24.0182 7.42235V11.4183H21.9708C19.9538 11.4183 19.3246 12.6701 19.3246 13.9555V17H23.828L23.108 21.6937H19.3246V33.0404C27.0872 31.8222 33.0251 25.1046 33.0251 17Z" fill="#F6FAF9"/>
</g>
<defs>
<clipPath id="clip0_62_280">
<rect width="32.4752" height="32.4752" fill="white" transform="translate(0.549805 0.76239)"/>
</clipPath>
</defs>
</svg>
