<svg width="200" height="51" viewBox="0 0 200 51" fill="none" xmlns="http://www.w3.org/2000/svg">
<g clip-path="url(#clip0_121_103)">
<path fill-rule="evenodd" clip-rule="evenodd" d="M92.8986 0.0389755L89.9893 0.148871V6.80394V13.459L92.4391 15.9339L94.8886 18.4088L94.7853 24.5995L94.6817 30.7901L93.274 29.4164L91.8662 28.0427V22.2175C91.8662 17.3739 91.7668 16.3099 91.2746 15.9004C90.8016 15.5068 90.6244 15.503 90.3909 15.8816C90.0366 16.4563 89.8676 27.5885 90.2002 28.4567C90.4743 29.1726 95.8642 33.9891 96.3913 33.9891C96.6034 33.9891 96.7464 30.7796 96.7464 26.0217V18.0543L94.2962 15.5098L91.846 12.9652L91.95 7.38805L92.0539 1.81085L93.4617 1.69418L94.8694 1.57714V8.36092C94.8694 14.6005 94.9257 15.1752 95.571 15.5214C95.9566 15.7284 96.3789 15.7905 96.5095 15.6599C96.6398 15.5293 96.7573 12.3597 96.7701 8.61647C96.7858 4.19205 96.912 2.10516 97.1316 2.65238C97.3174 3.1153 97.4097 4.63238 97.3373 6.02339C97.1822 8.98793 97.3286 9.52611 98.2882 9.52611C98.9406 9.52611 98.9988 9.20019 98.9988 5.55294V1.57939L100.594 1.69531L102.19 1.81085L102.293 17.2414C102.349 25.7282 102.305 33.0483 102.194 33.5078C101.883 34.8021 100.603 35.3282 99.7184 34.5254C99.0619 33.9297 98.9988 33.2997 98.9988 27.3198C98.9988 21.1065 98.7435 19.3113 97.8595 19.3113C97.6383 19.3113 97.4972 22.3617 97.4972 27.1384V34.9654L98.9207 36.359C99.7038 37.1257 100.506 37.7534 100.704 37.7542C100.902 37.7549 101.694 37.035 102.465 36.1547L103.867 34.5537L103.873 18.066C103.877 7.17164 104.006 1.6573 104.254 1.81085C104.479 1.9501 104.63 4.41899 104.63 7.95258C104.63 14.5384 104.432 13.9701 107.765 16.9681L109.134 18.2007V23.1577C109.134 28.0243 109.116 28.1338 108.126 29.1699C107.571 29.7506 106.98 30.2256 106.812 30.2256C106.644 30.2256 106.507 27.1263 106.507 23.3383C106.507 16.4198 106.351 15.5478 105.118 15.5478C104.731 15.5478 104.63 17.4536 104.63 24.7685C104.63 31.8966 104.736 33.988 105.099 33.9846C105.357 33.9824 106.793 32.7381 108.29 31.2199L111.011 28.459V23.2164C111.011 19.0716 110.889 17.7976 110.425 17.1337C109.893 16.3724 109.893 16.2391 110.425 15.7059C110.916 15.2132 111.011 13.9411 111.011 7.88107C111.011 3.37724 110.864 0.496622 110.621 0.253121C110.139 -0.230118 105.008 0.0344596 104.348 0.576786C104.02 0.845879 103.879 0.827061 103.879 0.514687C103.879 0.192904 102.843 0.0924176 100.196 0.15828C98.1699 0.208335 96.3541 0.177474 96.16 0.0894073C95.9663 0.000964001 94.4989 -0.0216175 92.8986 0.0389755ZM109.134 8.58523C109.238 12.3111 109.274 15.4356 109.216 15.529C109.028 15.8274 106.563 13.1229 106.489 12.5369C106.45 12.2265 106.438 9.633 106.462 6.77384L106.507 1.57488L107.727 1.69305L108.947 1.81085L109.134 8.58523ZM97.7555 10.1456C97.2652 10.6367 97.4991 12.1851 98.0982 12.4154C98.8757 12.7146 99.3847 11.878 99.0224 10.8964C98.7146 10.0624 98.1639 9.73612 97.7555 10.1456Z" fill="#A6A6A6"/>
<path d="M23.6086 43.1529C23.5631 42.7495 23.3756 42.437 23.0461 42.2154C22.7166 41.9909 22.3018 41.8787 21.8018 41.8787C21.4438 41.8787 21.1342 41.9355 20.8728 42.0492C20.6114 42.16 20.4083 42.3134 20.2634 42.5094C20.1214 42.7026 20.0504 42.9228 20.0504 43.1699C20.0504 43.3773 20.0987 43.5563 20.1952 43.7068C20.2947 43.8574 20.4239 43.9838 20.583 44.0861C20.745 44.1855 20.9183 44.2693 21.1029 44.3375C21.2876 44.4029 21.4651 44.4568 21.6356 44.4995L22.4879 44.721C22.7663 44.7892 23.0518 44.8816 23.3444 44.998C23.637 45.1145 23.9083 45.2679 24.1583 45.4583C24.4083 45.6486 24.61 45.8844 24.7634 46.1656C24.9197 46.4469 24.9978 46.7835 24.9978 47.1756C24.9978 47.6699 24.87 48.1088 24.6143 48.4924C24.3614 48.8759 23.9935 49.1784 23.5106 49.4C23.0305 49.6216 22.4495 49.7324 21.7677 49.7324C21.1143 49.7324 20.5489 49.6287 20.0717 49.4213C19.5944 49.2139 19.2208 48.9199 18.9509 48.5392C18.681 48.1557 18.5319 47.7012 18.5035 47.1756H19.8245C19.8501 47.4909 19.9523 47.7537 20.1313 47.9639C20.3131 48.1713 20.5447 48.3262 20.8259 48.4284C21.11 48.5279 21.4211 48.5776 21.7592 48.5776C22.1313 48.5776 22.4623 48.5193 22.7521 48.4029C23.0447 48.2835 23.2748 48.1188 23.4424 47.9085C23.61 47.6955 23.6938 47.4469 23.6938 47.1628C23.6938 46.9043 23.62 46.6926 23.4722 46.5279C23.3273 46.3631 23.1299 46.2267 22.8799 46.1188C22.6327 46.0108 22.3529 45.9156 22.0404 45.8333L21.0092 45.552C20.3103 45.3617 19.7563 45.0818 19.3472 44.7125C18.941 44.3432 18.7379 43.8546 18.7379 43.2466C18.7379 42.7438 18.8742 42.3049 19.1469 41.9299C19.4197 41.5549 19.789 41.2637 20.2549 41.0563C20.7208 40.846 21.2464 40.7409 21.8316 40.7409C22.4225 40.7409 22.9438 40.8446 23.3955 41.052C23.8501 41.2594 24.208 41.5449 24.4694 41.9085C24.7308 42.2693 24.8671 42.6841 24.8785 43.1529H23.6086ZM28.6081 40.8603V49.5875H27.2913V40.8603H28.6081ZM27.4277 39.9867L28.4248 38.0222H29.7672L28.4461 39.9867H27.4277ZM38.2897 40.8603V49.5875H37.0795L32.6434 43.187H32.5624V49.5875H31.2457V40.8603H32.4644L36.9048 47.2693H36.9857V40.8603H38.2897ZM43.7558 49.5875H40.9305V40.8603H43.8453C44.7004 40.8603 45.4348 41.035 46.0484 41.3844C46.6621 41.731 47.1322 42.2296 47.4589 42.8801C47.7885 43.5279 47.9533 44.3049 47.9533 45.2111C47.9533 46.1202 47.7871 46.9014 47.4547 47.5549C47.1251 48.2083 46.6479 48.7111 46.0229 49.0634C45.3979 49.4128 44.6422 49.5875 43.7558 49.5875ZM42.2473 48.437H43.6834C44.3481 48.437 44.9007 48.312 45.341 48.062C45.7814 47.8091 46.1109 47.4441 46.3297 46.9668C46.5484 46.4867 46.6578 45.9014 46.6578 45.2111C46.6578 44.5264 46.5484 43.9455 46.3297 43.4682C46.1138 42.9909 45.7913 42.6287 45.3623 42.3816C44.9334 42.1344 44.4007 42.0108 43.7643 42.0108H42.2473V48.437ZM51.6274 40.8603V49.5875H50.3107V40.8603H51.6274ZM61.5136 43.6983H60.1841C60.133 43.4142 60.0378 43.1642 59.8986 42.9483C59.7594 42.7324 59.5889 42.5492 59.3872 42.3986C59.1855 42.248 58.9597 42.1344 58.7097 42.0577C58.4625 41.981 58.1997 41.9426 57.9213 41.9426C57.4185 41.9426 56.9682 42.0691 56.5705 42.3219C56.1756 42.5747 55.8631 42.9455 55.633 43.4341C55.4057 43.9228 55.292 44.5193 55.292 45.2239C55.292 45.9341 55.4057 46.5335 55.633 47.0222C55.8631 47.5108 56.177 47.8801 56.5747 48.1301C56.9724 48.3801 57.4199 48.5051 57.917 48.5051C58.1926 48.5051 58.454 48.4682 58.7011 48.3943C58.9511 48.3176 59.177 48.2054 59.3787 48.0577C59.5804 47.91 59.7509 47.7296 59.8901 47.5165C60.0321 47.3006 60.1301 47.0534 60.1841 46.775L61.5136 46.7793C61.4426 47.2083 61.3048 47.6031 61.1003 47.9639C60.8986 48.3219 60.6386 48.6316 60.3205 48.8929C60.0051 49.1514 59.6443 49.3517 59.2381 49.4938C58.8318 49.6358 58.3886 49.7068 57.9085 49.7068C57.1528 49.7068 56.4795 49.5279 55.8886 49.1699C55.2977 48.8091 54.8318 48.2935 54.4909 47.623C54.1528 46.9526 53.9838 46.1529 53.9838 45.2239C53.9838 44.2921 54.1543 43.4924 54.4952 42.8247C54.8361 42.1543 55.302 41.6401 55.8929 41.2821C56.4838 40.9213 57.1557 40.7409 57.9085 40.7409C58.3716 40.7409 58.8034 40.8077 59.204 40.9412C59.6074 41.0719 59.9696 41.2651 60.2906 41.5208C60.6116 41.7736 60.8773 42.0833 61.0875 42.4497C61.2977 42.8134 61.4398 43.2296 61.5136 43.6983ZM71.3902 45.2239C71.3902 46.1557 71.2198 46.9568 70.8789 47.6273C70.538 48.2949 70.0706 48.8091 69.4769 49.1699C68.886 49.5279 68.2141 49.7068 67.4613 49.7068C66.7056 49.7068 66.0309 49.5279 65.4371 49.1699C64.8462 48.8091 64.3803 48.2935 64.0394 47.623C63.6985 46.9526 63.528 46.1529 63.528 45.2239C63.528 44.2921 63.6985 43.4924 64.0394 42.8247C64.3803 42.1543 64.8462 41.6401 65.4371 41.2821C66.0309 40.9213 66.7056 40.7409 67.4613 40.7409C68.2141 40.7409 68.886 40.9213 69.4769 41.2821C70.0706 41.6401 70.538 42.1543 70.8789 42.8247C71.2198 43.4924 71.3902 44.2921 71.3902 45.2239ZM70.0863 45.2239C70.0863 44.5137 69.9712 43.9156 69.7411 43.4299C69.5138 42.9412 69.2013 42.5719 68.8036 42.3219C68.4087 42.0691 67.9613 41.9426 67.4613 41.9426C66.9584 41.9426 66.5096 42.0691 66.1147 42.3219C65.7198 42.5719 65.4073 42.9412 65.1772 43.4299C64.9499 43.9156 64.8363 44.5137 64.8363 45.2239C64.8363 45.9341 64.9499 46.5335 65.1772 47.0222C65.4073 47.508 65.7198 47.8773 66.1147 48.1301C66.5096 48.3801 66.9584 48.5051 67.4613 48.5051C67.9613 48.5051 68.4087 48.3801 68.8036 48.1301C69.2013 47.8773 69.5138 47.508 69.7411 47.0222C69.9712 46.5335 70.0863 45.9341 70.0863 45.2239ZM78.5119 43.1529C78.4664 42.7495 78.2789 42.437 77.9494 42.2154C77.6198 41.9909 77.2051 41.8787 76.7051 41.8787C76.3471 41.8787 76.0374 41.9355 75.7761 42.0492C75.5147 42.16 75.3116 42.3134 75.1667 42.5094C75.0247 42.7026 74.9536 42.9228 74.9536 43.1699C74.9536 43.3773 75.0019 43.5563 75.0985 43.7068C75.198 43.8574 75.3272 43.9838 75.4863 44.0861C75.6482 44.1855 75.8215 44.2693 76.0062 44.3375C76.1909 44.4029 76.3684 44.4568 76.5389 44.4995L77.3911 44.721C77.6695 44.7892 77.9551 44.8816 78.2477 44.998C78.5403 45.1145 78.8116 45.2679 79.0616 45.4583C79.3116 45.6486 79.5133 45.8844 79.6667 46.1656C79.823 46.4469 79.9011 46.7835 79.9011 47.1756C79.9011 47.6699 79.7732 48.1088 79.5176 48.4924C79.2647 48.8759 78.8968 49.1784 78.4139 49.4C77.9338 49.6216 77.3528 49.7324 76.671 49.7324C76.0176 49.7324 75.4522 49.6287 74.9749 49.4213C74.4977 49.2139 74.1241 48.9199 73.8542 48.5392C73.5843 48.1557 73.4352 47.7012 73.4068 47.1756H74.7278C74.7534 47.4909 74.8556 47.7537 75.0346 47.9639C75.2164 48.1713 75.448 48.3262 75.7292 48.4284C76.0133 48.5279 76.3244 48.5776 76.6624 48.5776C77.0346 48.5776 77.3656 48.5193 77.6553 48.4029C77.948 48.2835 78.1781 48.1188 78.3457 47.9085C78.5133 47.6955 78.5971 47.4469 78.5971 47.1628C78.5971 46.9043 78.5232 46.6926 78.3755 46.5279C78.2306 46.3631 78.0332 46.2267 77.7832 46.1188C77.536 46.0108 77.2562 45.9156 76.9437 45.8333L75.9124 45.552C75.2136 45.3617 74.6596 45.0818 74.2505 44.7125C73.8443 44.3432 73.6411 43.8546 73.6411 43.2466C73.6411 42.7438 73.7775 42.3049 74.0502 41.9299C74.323 41.5549 74.6923 41.2637 75.1582 41.0563C75.6241 40.846 76.1497 40.7409 76.7349 40.7409C77.3258 40.7409 77.8471 40.8446 78.2988 41.052C78.7534 41.2594 79.1113 41.5449 79.3727 41.9085C79.634 42.2693 79.7704 42.6841 79.7818 43.1529H78.5119ZM88.5279 49.7111C87.9426 49.7111 87.4384 49.6046 87.0151 49.3915C86.5946 49.1784 86.2708 48.8887 86.0435 48.5222C85.8162 48.1529 85.7026 47.7353 85.7026 47.2693C85.7026 46.9142 85.7765 46.5989 85.9242 46.3233C86.0719 46.0449 86.2779 45.7878 86.5421 45.552C86.8063 45.3162 87.1117 45.079 87.4583 44.8404L88.8645 43.8475C89.1032 43.6912 89.2892 43.5264 89.4228 43.3531C89.5563 43.177 89.623 42.9597 89.623 42.7012C89.623 42.4966 89.535 42.3006 89.3588 42.1131C89.1827 41.9256 88.9469 41.8318 88.6515 41.8318C88.4469 41.8318 88.2665 41.8816 88.1103 41.981C87.9569 42.0804 87.8361 42.2083 87.748 42.3645C87.6628 42.5179 87.6202 42.6799 87.6202 42.8503C87.6202 43.0492 87.6742 43.2495 87.7821 43.4512C87.8929 43.6529 88.035 43.8617 88.2083 44.0776C88.3816 44.2906 88.5634 44.5122 88.7537 44.7424L92.8063 49.5875H91.3659L88.0123 45.6458C87.731 45.3134 87.4696 45.0009 87.2282 44.7083C86.9867 44.4128 86.7907 44.1145 86.6401 43.8134C86.4924 43.5094 86.4185 43.1813 86.4185 42.829C86.4185 42.4284 86.5094 42.0733 86.6912 41.7637C86.8759 41.4512 87.133 41.2068 87.4625 41.0307C87.7921 40.8546 88.1784 40.7665 88.6216 40.7665C89.0705 40.7665 89.4554 40.8546 89.7765 41.0307C90.1003 41.204 90.3489 41.4355 90.5222 41.7253C90.6983 42.0122 90.7864 42.3262 90.7864 42.6671C90.7864 43.0818 90.6827 43.4483 90.4753 43.7665C90.2708 44.0818 89.9881 44.3716 89.6273 44.6358L87.8759 45.927C87.535 46.177 87.2978 46.4242 87.1642 46.6685C87.0336 46.91 86.9682 47.0989 86.9682 47.2353C86.9682 47.4853 87.0321 47.7168 87.16 47.9299C87.2907 48.1429 87.4725 48.3134 87.7054 48.4412C87.9412 48.5691 88.2168 48.633 88.5321 48.633C88.856 48.633 89.1713 48.5634 89.4782 48.4242C89.7878 48.2821 90.0676 48.079 90.3176 47.8148C90.5705 47.5506 90.7708 47.2338 90.9185 46.8645C91.0662 46.4952 91.1401 46.0818 91.1401 45.6245H92.2907C92.2907 46.187 92.2267 46.6628 92.0989 47.052C91.9711 47.4384 91.8162 47.7537 91.6344 47.998C91.4554 48.2395 91.2864 48.4284 91.1273 48.5648C91.0762 48.6103 91.0279 48.6557 90.9824 48.7012C90.937 48.7466 90.8887 48.7921 90.8375 48.8375C90.5421 49.1358 90.1841 49.356 89.7637 49.498C89.3461 49.6401 88.9341 49.7111 88.5279 49.7111ZM99.2598 49.5875H97.862L101.003 40.8603H102.524L105.665 49.5875H104.267L101.8 42.4455H101.731L99.2598 49.5875ZM99.4941 46.1699H104.028V47.2779H99.4941V46.1699ZM112.335 43.1529C112.289 42.7495 112.102 42.437 111.772 42.2154C111.442 41.9909 111.028 41.8787 110.528 41.8787C110.17 41.8787 109.86 41.9355 109.599 42.0492C109.337 42.16 109.134 42.3134 108.989 42.5094C108.847 42.7026 108.776 42.9228 108.776 43.1699C108.776 43.3773 108.825 43.5563 108.921 43.7068C109.021 43.8574 109.15 43.9838 109.309 44.0861C109.471 44.1855 109.644 44.2693 109.829 44.3375C110.014 44.4029 110.191 44.4568 110.362 44.4995L111.214 44.721C111.492 44.7892 111.778 44.8816 112.07 44.998C112.363 45.1145 112.634 45.2679 112.884 45.4583C113.134 45.6486 113.336 45.8844 113.489 46.1656C113.646 46.4469 113.724 46.7835 113.724 47.1756C113.724 47.6699 113.596 48.1088 113.34 48.4924C113.087 48.8759 112.719 49.1784 112.237 49.4C111.756 49.6216 111.175 49.7324 110.494 49.7324C109.84 49.7324 109.275 49.6287 108.798 49.4213C108.32 49.2139 107.947 48.9199 107.677 48.5392C107.407 48.1557 107.258 47.7012 107.229 47.1756H108.55C108.576 47.4909 108.678 47.7537 108.857 47.9639C109.039 48.1713 109.271 48.3262 109.552 48.4284C109.836 48.5279 110.147 48.5776 110.485 48.5776C110.857 48.5776 111.188 48.5193 111.478 48.4029C111.771 48.2835 112.001 48.1188 112.168 47.9085C112.336 47.6955 112.42 47.4469 112.42 47.1628C112.42 46.9043 112.346 46.6926 112.198 46.5279C112.053 46.3631 111.856 46.2267 111.606 46.1188C111.359 46.0108 111.079 45.9156 110.766 45.8333L109.735 45.552C109.036 45.3617 108.482 45.0818 108.073 44.7125C107.667 44.3432 107.464 43.8546 107.464 43.2466C107.464 42.7438 107.6 42.3049 107.873 41.9299C108.146 41.5549 108.515 41.2637 108.981 41.0563C109.447 40.846 109.972 40.7409 110.558 40.7409C111.148 40.7409 111.67 40.8446 112.121 41.052C112.576 41.2594 112.934 41.5449 113.195 41.9085C113.457 42.2693 113.593 42.6841 113.604 43.1529H112.335ZM120.777 43.1529C120.732 42.7495 120.544 42.437 120.215 42.2154C119.885 41.9909 119.47 41.8787 118.97 41.8787C118.612 41.8787 118.303 41.9355 118.041 42.0492C117.78 42.16 117.577 42.3134 117.432 42.5094C117.29 42.7026 117.219 42.9228 117.219 43.1699C117.219 43.3773 117.267 43.5563 117.364 43.7068C117.463 43.8574 117.593 43.9838 117.752 44.0861C117.914 44.1855 118.087 44.2693 118.272 44.3375C118.456 44.4029 118.634 44.4568 118.804 44.4995L119.656 44.721C119.935 44.7892 120.22 44.8816 120.513 44.998C120.806 45.1145 121.077 45.2679 121.327 45.4583C121.577 45.6486 121.779 45.8844 121.932 46.1656C122.088 46.4469 122.166 46.7835 122.166 47.1756C122.166 47.6699 122.039 48.1088 121.783 48.4924C121.53 48.8759 121.162 49.1784 120.679 49.4C120.199 49.6216 119.618 49.7324 118.936 49.7324C118.283 49.7324 117.718 49.6287 117.24 49.4213C116.763 49.2139 116.389 48.9199 116.12 48.5392C115.85 48.1557 115.7 47.7012 115.672 47.1756H116.993C117.019 47.4909 117.121 47.7537 117.3 47.9639C117.482 48.1713 117.713 48.3262 117.995 48.4284C118.279 48.5279 118.59 48.5776 118.928 48.5776C119.3 48.5776 119.631 48.5193 119.921 48.4029C120.213 48.2835 120.443 48.1188 120.611 47.9085C120.779 47.6955 120.862 47.4469 120.862 47.1628C120.862 46.9043 120.789 46.6926 120.641 46.5279C120.496 46.3631 120.298 46.2267 120.048 46.1188C119.801 46.0108 119.522 45.9156 119.209 45.8333L118.178 45.552C117.479 45.3617 116.925 45.0818 116.516 44.7125C116.11 44.3432 115.906 43.8546 115.906 43.2466C115.906 42.7438 116.043 42.3049 116.316 41.9299C116.588 41.5549 116.958 41.2637 117.423 41.0563C117.889 40.846 118.415 40.7409 119 40.7409C119.591 40.7409 120.112 40.8446 120.564 41.052C121.019 41.2594 121.377 41.5449 121.638 41.9085C121.899 42.2693 122.036 42.6841 122.047 43.1529H120.777ZM132.041 45.2239C132.041 46.1557 131.87 46.9568 131.53 47.6273C131.189 48.2949 130.721 48.8091 130.128 49.1699C129.537 49.5279 128.865 49.7068 128.112 49.7068C127.356 49.7068 126.681 49.5279 126.088 49.1699C125.497 48.8091 125.031 48.2935 124.69 47.623C124.349 46.9526 124.179 46.1529 124.179 45.2239C124.179 44.2921 124.349 43.4924 124.69 42.8247C125.031 42.1543 125.497 41.6401 126.088 41.2821C126.681 40.9213 127.356 40.7409 128.112 40.7409C128.865 40.7409 129.537 40.9213 130.128 41.2821C130.721 41.6401 131.189 42.1543 131.53 42.8247C131.87 43.4924 132.041 44.2921 132.041 45.2239ZM130.737 45.2239C130.737 44.5137 130.622 43.9156 130.392 43.4299C130.164 42.9412 129.852 42.5719 129.454 42.3219C129.059 42.0691 128.612 41.9426 128.112 41.9426C127.609 41.9426 127.16 42.0691 126.765 42.3219C126.37 42.5719 126.058 42.9412 125.828 43.4299C125.601 43.9156 125.487 44.5137 125.487 45.2239C125.487 45.9341 125.601 46.5335 125.828 47.0222C126.058 47.508 126.37 47.8773 126.765 48.1301C127.16 48.3801 127.609 48.5051 128.112 48.5051C128.612 48.5051 129.059 48.3801 129.454 48.1301C129.852 47.8773 130.164 47.508 130.392 47.0222C130.622 46.5335 130.737 45.9341 130.737 45.2239ZM141.651 43.6983H140.322C140.27 43.4142 140.175 43.1642 140.036 42.9483C139.897 42.7324 139.726 42.5492 139.525 42.3986C139.323 42.248 139.097 42.1344 138.847 42.0577C138.6 41.981 138.337 41.9426 138.059 41.9426C137.556 41.9426 137.106 42.0691 136.708 42.3219C136.313 42.5747 136.001 42.9455 135.77 43.4341C135.543 43.9228 135.43 44.5193 135.43 45.2239C135.43 45.9341 135.543 46.5335 135.77 47.0222C136.001 47.5108 136.314 47.8801 136.712 48.1301C137.11 48.3801 137.557 48.5051 138.055 48.5051C138.33 48.5051 138.591 48.4682 138.839 48.3943C139.089 48.3176 139.314 48.2054 139.516 48.0577C139.718 47.91 139.888 47.7296 140.028 47.5165C140.17 47.3006 140.268 47.0534 140.322 46.775L141.651 46.7793C141.58 47.2083 141.442 47.6031 141.238 47.9639C141.036 48.3219 140.776 48.6316 140.458 48.8929C140.143 49.1514 139.782 49.3517 139.376 49.4938C138.969 49.6358 138.526 49.7068 138.046 49.7068C137.29 49.7068 136.617 49.5279 136.026 49.1699C135.435 48.8091 134.969 48.2935 134.628 47.623C134.29 46.9526 134.121 46.1529 134.121 45.2239C134.121 44.2921 134.292 43.4924 134.633 42.8247C134.974 42.1543 135.439 41.6401 136.03 41.2821C136.621 40.9213 137.293 40.7409 138.046 40.7409C138.509 40.7409 138.941 40.8077 139.341 40.9412C139.745 41.0719 140.107 41.2651 140.428 41.5208C140.749 41.7736 141.015 42.0833 141.225 42.4497C141.435 42.8134 141.577 43.2296 141.651 43.6983ZM145.264 40.8603V49.5875H143.947V40.8603H145.264ZM148.638 49.5875H147.241L150.381 40.8603H151.903L155.043 49.5875H153.645L151.178 42.4455H151.11L148.638 49.5875ZM148.873 46.1699H153.407V47.2779H148.873V46.1699ZM159.849 49.5875H157.024V40.8603H159.938C160.793 40.8603 161.528 41.035 162.141 41.3844C162.755 41.731 163.225 42.2296 163.552 42.8801C163.881 43.5279 164.046 44.3049 164.046 45.2111C164.046 46.1202 163.88 46.9014 163.548 47.5549C163.218 48.2083 162.741 48.7111 162.116 49.0634C161.491 49.4128 160.735 49.5875 159.849 49.5875ZM158.34 48.437H159.776C160.441 48.437 160.994 48.312 161.434 48.062C161.874 47.8091 162.204 47.4441 162.423 46.9668C162.641 46.4867 162.751 45.9014 162.751 45.2111C162.751 44.5264 162.641 43.9455 162.423 43.4682C162.207 42.9909 161.884 42.6287 161.455 42.3816C161.026 42.1344 160.494 42.0108 159.857 42.0108H158.34V48.437ZM173.985 45.2239C173.985 46.1557 173.814 46.9568 173.473 47.6273C173.132 48.2949 172.665 48.8091 172.071 49.1699C171.48 49.5279 170.808 49.7068 170.056 49.7068C169.3 49.7068 168.625 49.5279 168.032 49.1699C167.441 48.8091 166.975 48.2935 166.634 47.623C166.293 46.9526 166.122 46.1529 166.122 45.2239C166.122 44.2921 166.293 43.4924 166.634 42.8247C166.975 42.1543 167.441 41.6401 168.032 41.2821C168.625 40.9213 169.3 40.7409 170.056 40.7409C170.808 40.7409 171.48 40.9213 172.071 41.2821C172.665 41.6401 173.132 42.1543 173.473 42.8247C173.814 43.4924 173.985 44.2921 173.985 45.2239ZM172.681 45.2239C172.681 44.5137 172.566 43.9156 172.335 43.4299C172.108 42.9412 171.796 42.5719 171.398 42.3219C171.003 42.0691 170.556 41.9426 170.056 41.9426C169.553 41.9426 169.104 42.0691 168.709 42.3219C168.314 42.5719 168.002 42.9412 167.772 43.4299C167.544 43.9156 167.431 44.5137 167.431 45.2239C167.431 45.9341 167.544 46.5335 167.772 47.0222C168.002 47.508 168.314 47.8773 168.709 48.1301C169.104 48.3801 169.553 48.5051 170.056 48.5051C170.556 48.5051 171.003 48.3801 171.398 48.1301C171.796 47.8773 172.108 47.508 172.335 47.0222C172.566 46.5335 172.681 45.9341 172.681 45.2239ZM181.106 43.1529C181.061 42.7495 180.873 42.437 180.544 42.2154C180.214 41.9909 179.799 41.8787 179.299 41.8787C178.941 41.8787 178.632 41.9355 178.37 42.0492C178.109 42.16 177.906 42.3134 177.761 42.5094C177.619 42.7026 177.548 42.9228 177.548 43.1699C177.548 43.3773 177.596 43.5563 177.693 43.7068C177.792 43.8574 177.922 43.9838 178.081 44.0861C178.243 44.1855 178.416 44.2693 178.601 44.3375C178.785 44.4029 178.963 44.4568 179.133 44.4995L179.986 44.721C180.264 44.7892 180.549 44.8816 180.842 44.998C181.135 45.1145 181.406 45.2679 181.656 45.4583C181.906 45.6486 182.108 45.8844 182.261 46.1656C182.417 46.4469 182.495 46.7835 182.495 47.1756C182.495 47.6699 182.368 48.1088 182.112 48.4924C181.859 48.8759 181.491 49.1784 181.008 49.4C180.528 49.6216 179.947 49.7324 179.265 49.7324C178.612 49.7324 178.047 49.6287 177.569 49.4213C177.092 49.2139 176.718 48.9199 176.449 48.5392C176.179 48.1557 176.03 47.7012 176.001 47.1756H177.322C177.348 47.4909 177.45 47.7537 177.629 47.9639C177.811 48.1713 178.042 48.3262 178.324 48.4284C178.608 48.5279 178.919 48.5776 179.257 48.5776C179.629 48.5776 179.96 48.5193 180.25 48.4029C180.542 48.2835 180.772 48.1188 180.94 47.9085C181.108 47.6955 181.191 47.4469 181.191 47.1628C181.191 46.9043 181.118 46.6926 180.97 46.5279C180.825 46.3631 180.628 46.2267 180.378 46.1188C180.13 46.0108 179.851 45.9156 179.538 45.8333L178.507 45.552C177.808 45.3617 177.254 45.0818 176.845 44.7125C176.439 44.3432 176.236 43.8546 176.236 43.2466C176.236 42.7438 176.372 42.3049 176.645 41.9299C176.917 41.5549 177.287 41.2637 177.753 41.0563C178.218 40.846 178.744 40.7409 179.329 40.7409C179.92 40.7409 180.441 40.8446 180.893 41.052C181.348 41.2594 181.706 41.5449 181.967 41.9085C182.228 42.2693 182.365 42.6841 182.376 43.1529H181.106Z" fill="#A6A6A6"/>
</g>
<defs>
<clipPath id="clip0_121_103">
<rect width="200" height="51" fill="white"/>
</clipPath>
</defs>
</svg>
